<svg width="184" height="53" viewBox="0 0 184 53" fill="none" xmlns="http://www.w3.org/2000/svg">
<path d="M56.2182 26.3984C56.2182 23.8383 57.3944 21.9701 59.6777 20.5171C58.3631 18.6489 56.4257 17.6802 53.8657 17.4727C51.3748 17.2651 48.6763 18.8565 47.7076 18.8565C46.6697 18.8565 44.3172 17.5419 42.4491 17.5419C38.5744 17.6111 34.4921 20.5863 34.4921 26.7443C34.4921 28.5433 34.7688 30.4115 35.4607 32.3488C36.3602 34.9089 39.543 41.1361 42.8642 40.9977C44.594 40.9977 45.8395 39.7523 48.1228 39.7523C50.3369 39.7523 51.444 40.9977 53.3813 40.9977C56.7717 40.9977 59.6777 35.324 60.508 32.764C56.0106 30.619 56.2182 26.5367 56.2182 26.3984ZM52.3434 15.051C54.2116 12.8368 54.004 10.7611 54.004 10C52.3434 10.1384 50.4061 11.1763 49.299 12.4217C48.0536 13.8055 47.3617 15.5353 47.5 17.4035C49.299 17.5419 50.9596 16.6424 52.3434 15.051Z" fill="#8F9492"/>
<path d="M75.7726 19.8184L75.7823 19.0566H77.257C77.7615 19.0566 78.1831 18.9508 78.5216 18.7393C78.8601 18.5244 79.1141 18.2249 79.2833 17.8408C79.4559 17.4535 79.5421 16.9993 79.5421 16.4785V16.0391C79.5421 15.4954 79.4559 15.0332 79.2833 14.6523C79.1141 14.2715 78.865 13.9801 78.5363 13.7783C78.2075 13.5765 77.8087 13.4756 77.34 13.4756H75.7433V12.709H77.34C77.965 12.709 78.5118 12.8457 78.9806 13.1191C79.4526 13.3893 79.8204 13.7751 80.0841 14.2764C80.3478 14.7744 80.4796 15.3652 80.4796 16.0488V16.4785C80.4796 17.1654 80.3478 17.7578 80.0841 18.2559C79.8204 18.7539 79.4477 19.1396 78.9659 19.4131C78.4842 19.6833 77.9145 19.8184 77.257 19.8184H75.7726ZM76.2804 19.8184H75.3331V12.709H76.2804V19.8184ZM81.5197 17.123C81.5197 16.612 81.6173 16.1546 81.8126 15.751C82.0079 15.3473 82.2846 15.0283 82.6427 14.7939C83.0008 14.5563 83.4256 14.4375 83.9171 14.4375C84.4152 14.4375 84.8448 14.5563 85.2062 14.7939C85.5675 15.0283 85.8442 15.3473 86.0363 15.751C86.2316 16.1546 86.3292 16.612 86.3292 17.123V17.2354C86.3292 17.7432 86.2316 18.2005 86.0363 18.6074C85.8442 19.0111 85.5675 19.3301 85.2062 19.5645C84.8481 19.7988 84.4217 19.916 83.9269 19.916C83.4321 19.916 83.004 19.7988 82.6427 19.5645C82.2846 19.3301 82.0079 19.0111 81.8126 18.6074C81.6173 18.2005 81.5197 17.7432 81.5197 17.2354V17.123ZM82.4327 17.2354C82.4327 17.5837 82.4881 17.9059 82.5988 18.2021C82.7094 18.4984 82.8738 18.736 83.0919 18.915C83.3133 19.0941 83.5916 19.1836 83.9269 19.1836C84.2589 19.1836 84.534 19.0941 84.7521 18.915C84.9734 18.736 85.1394 18.4984 85.2501 18.2021C85.3608 17.9059 85.4161 17.5837 85.4161 17.2354V17.123C85.4161 16.7747 85.3608 16.4525 85.2501 16.1562C85.1394 15.86 84.9734 15.6224 84.7521 15.4434C84.5307 15.2611 84.2524 15.1699 83.9171 15.1699C83.5883 15.1699 83.3133 15.2611 83.0919 15.4434C82.8706 15.6224 82.7045 15.86 82.5939 16.1562C82.4865 16.4525 82.4327 16.7747 82.4327 17.123V17.2354ZM90.1622 14.5352H90.7628L90.6456 15.4043L89.2638 19.8184H88.6827L88.8048 18.8711L90.1622 14.5352ZM89.0587 18.9199L89.1368 19.8184H88.5265L86.9933 14.5352H87.9015L89.0587 18.9199ZM93.1603 14.5352H94.0636L92.5304 19.8184H91.9249L92.0568 18.8906L93.1603 14.5352ZM92.2277 18.8027L92.3741 19.8184H91.7931L90.3722 15.3945L90.2599 14.5352H90.8995L92.2277 18.8027ZM95.8995 19.8184H94.9865V14.5352H95.8507L95.8995 15.6631V19.8184ZM95.3038 16.957C95.3103 16.4753 95.4031 16.0456 95.5822 15.668C95.7612 15.2871 96.0102 14.9876 96.3292 14.7695C96.6515 14.5482 97.0258 14.4375 97.4523 14.4375C97.8006 14.4375 98.1001 14.5026 98.3507 14.6328C98.6046 14.7598 98.7999 14.9632 98.9366 15.2432C99.0766 15.5231 99.1466 15.8942 99.1466 16.3564V19.8184H98.2335V16.3467C98.2335 16.07 98.1928 15.847 98.1115 15.6777C98.0333 15.5085 97.9161 15.3864 97.7599 15.3115C97.6036 15.2334 97.4116 15.1943 97.1837 15.1943C96.9591 15.1943 96.7557 15.2415 96.5734 15.3359C96.3911 15.4303 96.2332 15.5605 96.0997 15.7266C95.9663 15.8926 95.8637 16.083 95.7921 16.2979C95.7205 16.5094 95.6847 16.734 95.6847 16.9717L95.3038 16.957ZM101.505 19.8184H100.592V12.3184H101.505V19.8184ZM102.711 17.123C102.711 16.612 102.809 16.1546 103.004 15.751C103.199 15.3473 103.476 15.0283 103.834 14.7939C104.192 14.5563 104.617 14.4375 105.109 14.4375C105.607 14.4375 106.036 14.5563 106.398 14.7939C106.759 15.0283 107.036 15.3473 107.228 15.751C107.423 16.1546 107.521 16.612 107.521 17.123V17.2354C107.521 17.7432 107.423 18.2005 107.228 18.6074C107.036 19.0111 106.759 19.3301 106.398 19.5645C106.04 19.7988 105.613 19.916 105.118 19.916C104.623 19.916 104.195 19.7988 103.834 19.5645C103.476 19.3301 103.199 19.0111 103.004 18.6074C102.809 18.2005 102.711 17.7432 102.711 17.2354V17.123ZM103.624 17.2354C103.624 17.5837 103.679 17.9059 103.79 18.2021C103.901 18.4984 104.065 18.736 104.283 18.915C104.505 19.0941 104.783 19.1836 105.118 19.1836C105.45 19.1836 105.725 19.0941 105.943 18.915C106.165 18.736 106.331 18.4984 106.442 18.2021C106.552 17.9059 106.608 17.5837 106.608 17.2354V17.123C106.608 16.7747 106.552 16.4525 106.442 16.1562C106.331 15.86 106.165 15.6224 105.943 15.4434C105.722 15.2611 105.444 15.1699 105.109 15.1699C104.78 15.1699 104.505 15.2611 104.283 15.4434C104.062 15.6224 103.896 15.86 103.785 16.1562C103.678 16.4525 103.624 16.7747 103.624 17.123V17.2354ZM111.774 16.1953C111.774 15.8796 111.679 15.6289 111.49 15.4434C111.305 15.2546 111.03 15.1602 110.665 15.1602C110.441 15.1602 110.242 15.1992 110.069 15.2773C109.9 15.3555 109.768 15.458 109.674 15.585C109.58 15.7119 109.532 15.8503 109.532 16H108.619C108.619 15.7461 108.706 15.5003 108.878 15.2627C109.051 15.0218 109.293 14.8249 109.606 14.6719C109.921 14.5156 110.292 14.4375 110.719 14.4375C111.103 14.4375 111.443 14.5026 111.739 14.6328C112.036 14.763 112.267 14.96 112.433 15.2236C112.602 15.484 112.687 15.8112 112.687 16.2051V18.666C112.687 18.8418 112.701 19.029 112.731 19.2275C112.763 19.4261 112.81 19.597 112.872 19.7402V19.8184H111.92C111.874 19.7142 111.839 19.5758 111.813 19.4033C111.787 19.2275 111.774 19.0648 111.774 18.915V16.1953ZM111.94 17.25H111.031C110.517 17.25 110.12 17.3314 109.84 17.4941C109.56 17.6569 109.42 17.901 109.42 18.2266C109.42 18.4805 109.505 18.6953 109.674 18.8711C109.846 19.0469 110.097 19.1348 110.426 19.1348C110.703 19.1348 110.947 19.0762 111.158 18.959C111.37 18.8418 111.538 18.6969 111.661 18.5244C111.785 18.3519 111.852 18.1859 111.861 18.0264L112.252 18.4609C112.229 18.5977 112.167 18.749 112.067 18.915C111.966 19.0811 111.831 19.2406 111.661 19.3936C111.495 19.5433 111.297 19.6686 111.066 19.7695C110.838 19.8672 110.581 19.916 110.294 19.916C109.936 19.916 109.622 19.8477 109.352 19.7109C109.085 19.571 108.876 19.3822 108.727 19.1445C108.58 18.9069 108.507 18.6432 108.507 18.3535C108.507 17.7839 108.722 17.3525 109.151 17.0596C109.581 16.7633 110.159 16.6152 110.885 16.6152H111.93L111.94 17.25ZM117.438 12.3184H118.351V19.8184H117.516L117.438 18.793V12.3184ZM113.888 17.1328C113.888 16.5957 113.974 16.1253 114.147 15.7217C114.322 15.3148 114.567 14.999 114.879 14.7744C115.192 14.5498 115.558 14.4375 115.978 14.4375C116.42 14.4375 116.79 14.54 117.086 14.7451C117.382 14.9469 117.613 15.235 117.779 15.6094C117.949 15.9837 118.058 16.4297 118.107 16.9473V17.4209C118.058 17.932 117.95 18.3747 117.784 18.749C117.618 19.1201 117.386 19.4082 117.086 19.6133C116.79 19.8151 116.417 19.916 115.968 19.916C115.554 19.916 115.192 19.8005 114.879 19.5693C114.567 19.335 114.322 19.016 114.147 18.6123C113.974 18.2087 113.888 17.7497 113.888 17.2354V17.1328ZM114.801 17.2354C114.801 17.5869 114.848 17.9076 114.943 18.1973C115.04 18.487 115.192 18.7197 115.397 18.8955C115.602 19.068 115.867 19.1543 116.193 19.1543C116.492 19.1543 116.738 19.0908 116.93 18.9639C117.125 18.8369 117.281 18.6693 117.399 18.4609C117.516 18.2526 117.607 18.0264 117.672 17.7822V16.5957C117.633 16.4167 117.576 16.2441 117.501 16.0781C117.429 15.9089 117.335 15.7591 117.218 15.6289C117.104 15.4954 116.962 15.3896 116.793 15.3115C116.627 15.2334 116.43 15.1943 116.202 15.1943C115.873 15.1943 115.605 15.2822 115.397 15.458C115.192 15.6338 115.04 15.8698 114.943 16.166C114.848 16.459 114.801 16.7812 114.801 17.1328V17.2354ZM121.998 17.123C121.998 16.612 122.096 16.1546 122.291 15.751C122.486 15.3473 122.763 15.0283 123.121 14.7939C123.479 14.5563 123.904 14.4375 124.396 14.4375C124.894 14.4375 125.323 14.5563 125.685 14.7939C126.046 15.0283 126.323 15.3473 126.515 15.751C126.71 16.1546 126.808 16.612 126.808 17.123V17.2354C126.808 17.7432 126.71 18.2005 126.515 18.6074C126.323 19.0111 126.046 19.3301 125.685 19.5645C125.327 19.7988 124.9 19.916 124.405 19.916C123.911 19.916 123.483 19.7988 123.121 19.5645C122.763 19.3301 122.486 19.0111 122.291 18.6074C122.096 18.2005 121.998 17.7432 121.998 17.2354V17.123ZM122.911 17.2354C122.911 17.5837 122.967 17.9059 123.077 18.2021C123.188 18.4984 123.352 18.736 123.57 18.915C123.792 19.0941 124.07 19.1836 124.405 19.1836C124.737 19.1836 125.012 19.0941 125.231 18.915C125.452 18.736 125.618 18.4984 125.729 18.2021C125.839 17.9059 125.895 17.5837 125.895 17.2354V17.123C125.895 16.7747 125.839 16.4525 125.729 16.1562C125.618 15.86 125.452 15.6224 125.231 15.4434C125.009 15.2611 124.731 15.1699 124.396 15.1699C124.067 15.1699 123.792 15.2611 123.57 15.4434C123.349 15.6224 123.183 15.86 123.072 16.1562C122.965 16.4525 122.911 16.7747 122.911 17.123V17.2354ZM128.859 19.8184H127.945V14.5352H128.81L128.859 15.6631V19.8184ZM128.263 16.957C128.269 16.4753 128.362 16.0456 128.541 15.668C128.72 15.2871 128.969 14.9876 129.288 14.7695C129.61 14.5482 129.985 14.4375 130.411 14.4375C130.76 14.4375 131.059 14.5026 131.31 14.6328C131.564 14.7598 131.759 14.9632 131.896 15.2432C132.036 15.5231 132.106 15.8942 132.106 16.3564V19.8184H131.193V16.3467C131.193 16.07 131.152 15.847 131.07 15.6777C130.992 15.5085 130.875 15.3864 130.719 15.3115C130.563 15.2334 130.371 15.1943 130.143 15.1943C129.918 15.1943 129.715 15.2415 129.532 15.3359C129.35 15.4303 129.192 15.5605 129.059 15.7266C128.925 15.8926 128.823 16.083 128.751 16.2979C128.679 16.5094 128.644 16.734 128.644 16.9717L128.263 16.957ZM138.175 15.2236H135.314V14.5352H138.175V15.2236ZM137.189 13.251V18.5098C137.189 18.6921 137.216 18.8288 137.272 18.9199C137.327 19.0111 137.399 19.0713 137.486 19.1006C137.574 19.1299 137.669 19.1445 137.77 19.1445C137.845 19.1445 137.923 19.138 138.004 19.125C138.089 19.112 138.151 19.1006 138.19 19.0908L138.194 19.8184C138.123 19.8411 138.028 19.8623 137.911 19.8818C137.797 19.9046 137.659 19.916 137.496 19.916C137.275 19.916 137.071 19.8721 136.886 19.7842C136.7 19.6963 136.552 19.5498 136.442 19.3447C136.331 19.1364 136.276 18.8564 136.276 18.5049V13.251H137.189ZM140.138 19.8184H139.225V12.3184H140.138V19.8184ZM139.542 16.957C139.549 16.4753 139.641 16.0456 139.82 15.668C139.999 15.2871 140.248 14.9876 140.568 14.7695C140.89 14.5482 141.264 14.4375 141.691 14.4375C142.039 14.4375 142.338 14.5026 142.589 14.6328C142.843 14.7598 143.038 14.9632 143.175 15.2432C143.315 15.5231 143.385 15.8942 143.385 16.3564V19.8184H142.472V16.3467C142.472 16.07 142.431 15.847 142.35 15.6777C142.272 15.5085 142.154 15.3864 141.998 15.3115C141.842 15.2334 141.65 15.1943 141.422 15.1943C141.197 15.1943 140.994 15.2415 140.812 15.3359C140.629 15.4303 140.471 15.5605 140.338 15.7266C140.205 15.8926 140.102 16.083 140.03 16.2979C139.959 16.5094 139.923 16.734 139.923 16.9717L139.542 16.957ZM146.93 19.916C146.438 19.916 146.01 19.807 145.646 19.5889C145.284 19.3675 145.003 19.0648 144.801 18.6807C144.602 18.2965 144.503 17.8571 144.503 17.3623V17.1523C144.503 16.5794 144.612 16.0911 144.83 15.6875C145.052 15.2806 145.338 14.9714 145.69 14.7598C146.044 14.5449 146.419 14.4375 146.813 14.4375C147.32 14.4375 147.734 14.5514 148.053 14.7793C148.375 15.0039 148.611 15.3115 148.761 15.7021C148.914 16.0895 148.99 16.529 148.99 17.0205V17.4258H145.045V16.6934H148.077V16.625C148.064 16.3906 148.017 16.1628 147.936 15.9414C147.854 15.7168 147.724 15.5329 147.545 15.3896C147.366 15.2432 147.122 15.1699 146.813 15.1699C146.539 15.1699 146.297 15.248 146.085 15.4043C145.877 15.5573 145.712 15.7819 145.592 16.0781C145.475 16.3711 145.416 16.7292 145.416 17.1523V17.3623C145.416 17.6976 145.478 18.0036 145.602 18.2803C145.725 18.5537 145.904 18.7734 146.139 18.9395C146.373 19.1022 146.653 19.1836 146.979 19.1836C147.298 19.1836 147.568 19.1185 147.789 18.9883C148.011 18.8581 148.204 18.6839 148.37 18.4658L148.922 18.8955C148.753 19.1559 148.509 19.3919 148.19 19.6035C147.874 19.8118 147.454 19.916 146.93 19.916Z" fill="#8F9492"/>
<path d="M116.302 38.1105C117.039 37.4408 117.412 36.5761 117.412 35.5079C117.412 34.6432 117.158 33.9142 116.641 33.3292C116.132 32.7443 115.344 32.2356 114.267 31.8033C113.386 31.4557 112.775 31.1336 112.445 30.8368C112.063 30.5232 111.868 30.1078 111.868 29.6161C111.868 29.1668 112.038 28.7938 112.368 28.4801C112.767 28.141 113.326 27.963 114.03 27.963C114.929 27.963 115.725 28.158 116.438 28.5395L116.946 26.9118C116.192 26.5133 115.242 26.3184 114.106 26.3184C112.826 26.3184 111.8 26.649 111.029 27.3017C110.257 27.963 109.868 28.8023 109.868 29.828C109.868 31.3964 110.961 32.5917 113.174 33.414C113.979 33.7107 114.556 34.0328 114.903 34.3804C115.242 34.728 115.42 35.1519 115.42 35.6605C115.42 36.2285 115.208 36.6863 114.784 37.0254C114.369 37.3645 113.776 37.534 113.021 37.534C111.97 37.534 111.003 37.2712 110.122 36.7541L109.656 38.4242C110.469 38.9413 111.546 39.2041 112.894 39.2041C114.352 39.2041 115.488 38.8396 116.302 38.1105Z" fill="#565E5B"/>
<path fill-rule="evenodd" clip-rule="evenodd" d="M82.9345 39.0176H85.0708L81.0271 26.4964H78.5347L74.5079 39.0176H76.5849L77.6955 35.3384H81.7646L82.9345 39.0176ZM80.3574 30.5317L81.4171 33.7955H78.0515L79.0942 30.5317C79.3655 29.4974 79.5605 28.709 79.6877 28.1749H79.73C80.0352 29.4126 80.2472 30.1926 80.3574 30.5317Z" fill="#565E5B"/>
<path fill-rule="evenodd" clip-rule="evenodd" d="M94.1663 38.0342C95.0056 37.144 95.421 35.9318 95.421 34.3974C95.421 33.0155 95.0649 31.9135 94.3359 31.0657C93.6238 30.2264 92.7421 29.8026 91.674 29.8026C90.3176 29.8026 89.3003 30.3451 88.6306 31.4218H88.5966L88.4864 29.9891H86.7231C86.774 31.0064 86.7994 31.9898 86.7994 32.9562V42.6798H88.8086V37.9409C89.3342 38.7971 90.1904 39.221 91.3857 39.221C92.4878 39.221 93.4203 38.8311 94.1663 38.0342ZM92.7845 32.2949C93.1829 32.8629 93.3779 33.5835 93.3779 34.4652C93.3779 35.4231 93.166 36.1861 92.7421 36.771C92.3182 37.3475 91.7333 37.6442 90.9788 37.6442C90.3345 37.6442 89.8089 37.4153 89.4105 36.966C89.012 36.5167 88.8086 35.9572 88.8086 35.3044V33.7955C88.8086 33.6344 88.8425 33.4309 88.9018 33.1851C89.0205 32.651 89.2918 32.2271 89.6902 31.8965C90.0972 31.5744 90.5465 31.4048 91.0382 31.4048C91.7672 31.4048 92.3522 31.7015 92.7845 32.2949Z" fill="#565E5B"/>
<path fill-rule="evenodd" clip-rule="evenodd" d="M105.797 34.3974C105.797 35.9318 105.382 37.144 104.543 38.0342C103.797 38.8311 102.864 39.221 101.762 39.221C100.567 39.221 99.7106 38.7971 99.185 37.9409V42.6798H97.1758V32.9562C97.1758 31.9898 97.1504 31.0064 97.0995 29.9891H98.8628L98.973 31.4218H99.0069C99.6767 30.3451 100.694 29.8026 102.05 29.8026C103.119 29.8026 104 30.2264 104.712 31.0657C105.441 31.9135 105.797 33.0155 105.797 34.3974ZM103.754 34.4652C103.754 33.5835 103.559 32.8629 103.161 32.2949C102.729 31.7015 102.144 31.4048 101.415 31.4048C100.923 31.4048 100.474 31.5744 100.067 31.8965C99.6682 32.2271 99.4054 32.651 99.2782 33.1851C99.2189 33.4309 99.185 33.6344 99.185 33.7955V35.3044C99.185 35.9572 99.3884 36.5167 99.7869 36.966C100.185 37.4153 100.711 37.6442 101.355 37.6442C102.11 37.6442 102.703 37.3475 103.119 36.771C103.551 36.1861 103.754 35.4231 103.754 34.4652Z" fill="#565E5B"/>
<path d="M124.058 31.4981H121.845V35.8809C121.845 36.9915 122.235 37.551 123.015 37.551C123.371 37.551 123.668 37.5171 123.905 37.4577L123.965 38.9837C123.566 39.1278 123.049 39.2041 122.405 39.2041C121.608 39.2041 120.998 38.9583 120.548 38.475C120.099 37.9918 119.879 37.178 119.879 36.042V31.4896H118.565V29.9891H119.879V28.336L121.845 27.7426V29.9891H124.058V31.4981Z" fill="#565E5B"/>
<path fill-rule="evenodd" clip-rule="evenodd" d="M132.824 37.8476C133.612 36.9575 134.011 35.8215 134.011 34.4312C134.011 33.0833 133.629 31.9812 132.858 31.1335C132.053 30.2518 130.984 29.811 129.662 29.811C128.289 29.811 127.195 30.2603 126.381 31.1504C125.576 32.0406 125.169 33.185 125.169 34.5838C125.169 35.9233 125.559 37.0338 126.347 37.907C127.136 38.7802 128.195 39.221 129.518 39.221C130.891 39.221 131.993 38.7632 132.824 37.8476ZM131.4 32.3458C131.756 32.9392 131.934 33.6428 131.934 34.4736C131.934 35.3044 131.747 36.0165 131.383 36.6269C130.942 37.3559 130.34 37.7205 129.577 37.7205C128.797 37.7205 128.187 37.3644 127.755 36.6438C127.398 36.0589 127.22 35.3468 127.22 34.516C127.22 33.6598 127.39 32.9392 127.755 32.3458C128.17 31.6252 128.789 31.2691 129.594 31.2691C130.374 31.2691 130.976 31.6252 131.4 32.3458Z" fill="#565E5B"/>
<path d="M140.539 31.7524C140.344 31.7185 140.132 31.7015 139.903 31.7015C139.2 31.7015 138.649 31.9643 138.267 32.4984C137.936 32.9647 137.767 33.5666 137.767 34.2787V39.0176H135.758V32.829C135.758 31.7863 135.741 30.8368 135.698 29.9891H137.445L137.521 31.7185H137.58C137.792 31.1251 138.123 30.6418 138.581 30.2858C139.03 29.9636 139.513 29.8026 140.03 29.8026C140.217 29.8026 140.386 29.8195 140.531 29.8365L140.539 31.7524Z" fill="#565E5B"/>
<path fill-rule="evenodd" clip-rule="evenodd" d="M149.432 34.9823C149.483 34.7365 149.508 34.4313 149.508 34.0752C149.508 32.9477 149.237 32.0067 148.703 31.2268C148.041 30.2604 147.049 29.7771 145.752 29.7771C144.43 29.7771 143.379 30.2604 142.599 31.2268C141.853 32.1339 141.48 33.2699 141.48 34.6263C141.48 36.0081 141.878 37.1186 142.675 37.9409C143.472 38.7633 144.574 39.1786 145.973 39.1786C147.134 39.1786 148.143 38.9921 148.999 38.6191L148.686 37.2288C147.957 37.5086 147.143 37.6527 146.253 37.6527C145.447 37.6527 144.794 37.4408 144.286 37.0254C143.726 36.5591 143.438 35.8724 143.413 34.9823H149.432ZM147.202 32.0152C147.473 32.4475 147.609 32.9647 147.592 33.5581L143.421 33.5496C143.48 32.9477 143.684 32.4221 144.015 31.9898C144.421 31.4472 144.956 31.1759 145.608 31.1759C146.32 31.1759 146.854 31.4557 147.202 32.0152Z" fill="#565E5B"/>
</svg>
