<svg width="223" height="72" viewBox="0 0 223 72" fill="none" xmlns="http://www.w3.org/2000/svg">
<path fill-rule="evenodd" clip-rule="evenodd" d="M31.3111 18.8681C30.9064 19.303 30.6738 19.9724 30.6738 20.8423V51.7838C30.6738 52.6536 30.9064 53.3231 31.3262 53.7429L31.4359 53.8355L48.7731 36.4984V36.1088L31.4207 18.7754L31.3111 18.8681Z" fill="url(#paint0_linear_17562_7269)"/>
<path fill-rule="evenodd" clip-rule="evenodd" d="M54.539 42.3003L48.7561 36.5156V36.1109L54.5409 30.3262L54.6657 30.4037L61.5075 34.2917C63.4667 35.3961 63.4667 37.2153 61.5075 38.3348L54.6657 42.2228C54.6638 42.2228 54.539 42.3003 54.539 42.3003Z" fill="url(#paint1_linear_17562_7269)"/>
<path fill-rule="evenodd" clip-rule="evenodd" d="M54.6651 42.223L48.7575 36.3135L31.3106 53.7603C31.9479 54.4449 33.0201 54.5224 34.2191 53.853L54.6651 42.223Z" fill="url(#paint2_linear_17562_7269)"/>
<path fill-rule="evenodd" clip-rule="evenodd" d="M54.6651 30.4056L34.2191 18.7907C33.022 18.1062 31.9479 18.1988 31.3106 18.8834L48.7556 36.3132L54.6651 30.4056Z" fill="url(#paint3_linear_17562_7269)"/>
<path opacity="0.2" fill-rule="evenodd" clip-rule="evenodd" d="M54.5443 42.0986L34.2382 53.636C33.1035 54.2884 32.0918 54.243 31.4394 53.6511L31.3297 53.7608L31.4394 53.8534C32.0918 54.4434 33.1035 54.4907 34.2382 53.8383L54.6842 42.2234L54.5443 42.0986Z" fill="black"/>
<path opacity="0.12" fill-rule="evenodd" clip-rule="evenodd" d="M61.5045 38.1327L54.5228 42.0982L54.6476 42.223L61.4894 38.335C62.469 37.7753 62.9512 37.0453 62.9512 36.3135C62.8888 36.9829 62.3914 37.6202 61.5045 38.1327Z" fill="black"/>
<path opacity="0.25" fill-rule="evenodd" clip-rule="evenodd" d="M34.2195 18.9932L61.5074 34.4961C62.3943 34.9935 62.8917 35.6459 62.9692 36.3153C62.9692 35.5854 62.487 34.8535 61.5074 34.2938L34.2195 18.7909C32.2604 17.6714 30.6738 18.6037 30.6738 20.8427V21.045C30.6738 18.806 32.2604 17.8889 34.2195 18.9932Z" fill="white"/>
<path d="M87.4876 26.0557C87.3646 26.2334 87.1686 26.4362 86.8997 26.6641C86.6354 26.8874 86.2663 27.0833 85.7923 27.252C85.3229 27.416 84.7145 27.498 83.9671 27.498C83.1605 27.498 82.4427 27.3112 81.8138 26.9375C81.1894 26.5638 80.6995 26.0238 80.3441 25.3174C79.9886 24.611 79.8109 23.7633 79.8109 22.7744V21.9883C79.8109 20.9993 79.9658 20.154 80.2757 19.4521C80.5856 18.7458 81.0368 18.2057 81.6292 17.832C82.2262 17.4583 82.9531 17.2715 83.8099 17.2715C84.5709 17.2715 85.209 17.4036 85.7239 17.668C86.2389 17.9277 86.64 18.2878 86.9271 18.748C87.2187 19.2083 87.4056 19.7324 87.4876 20.3203H86.1614C86.1022 19.9603 85.9837 19.6322 85.806 19.3359C85.6328 19.0352 85.3844 18.7959 85.0609 18.6182C84.7373 18.4359 84.3226 18.3447 83.8167 18.3447C83.2015 18.3447 82.6956 18.4928 82.2991 18.7891C81.9072 19.0807 81.6155 19.4977 81.4241 20.04C81.2373 20.5824 81.1439 21.2272 81.1439 21.9746V22.7744C81.1439 23.54 81.2623 24.1963 81.4993 24.7432C81.7363 25.2855 82.0667 25.7025 82.4905 25.9941C82.9144 26.2858 83.4088 26.4316 83.9739 26.4316C84.4433 26.4316 84.8216 26.3929 85.1087 26.3154C85.4004 26.2334 85.6282 26.1377 85.7923 26.0283C85.9564 25.9144 86.0817 25.8073 86.1683 25.707V23.4648H83.8714V22.4053H87.4876V26.0557ZM92.553 27.498C91.8649 27.498 91.2656 27.3454 90.7552 27.04C90.2493 26.7301 89.8551 26.3063 89.5726 25.7686C89.2946 25.2308 89.1556 24.6156 89.1556 23.9229V23.6289C89.1556 22.8268 89.3082 22.1432 89.6136 21.5781C89.9235 21.0085 90.3245 20.5755 90.8167 20.2793C91.3135 19.9785 91.8375 19.8281 92.389 19.8281C93.0999 19.8281 93.6787 19.9876 94.1253 20.3066C94.5765 20.6211 94.9069 21.0518 95.1165 21.5986C95.3307 22.141 95.4378 22.7562 95.4378 23.4443V24.0117H89.9144V22.9863H94.1595V22.8906C94.1413 22.5625 94.0752 22.2435 93.9612 21.9336C93.8473 21.6191 93.665 21.3617 93.4144 21.1611C93.1637 20.9561 92.8219 20.8535 92.389 20.8535C92.0062 20.8535 91.6666 20.9629 91.3704 21.1816C91.0788 21.3958 90.8486 21.7103 90.68 22.125C90.5159 22.5352 90.4339 23.0365 90.4339 23.6289V23.9229C90.4339 24.3923 90.5205 24.8206 90.6937 25.208C90.8668 25.5908 91.1175 25.8984 91.4456 26.1309C91.7737 26.3587 92.1657 26.4727 92.6214 26.4727C93.068 26.4727 93.4463 26.3815 93.7562 26.1992C94.0661 26.0169 94.3372 25.7731 94.5696 25.4678L95.3421 26.0693C95.1051 26.4339 94.7633 26.7643 94.3167 27.0605C93.8747 27.3522 93.2868 27.498 92.553 27.498ZM100.025 20.9287H96.0189V19.9648H100.025V20.9287ZM98.6439 18.167V25.5293C98.6439 25.7845 98.6826 25.9759 98.7601 26.1035C98.8375 26.2311 98.9378 26.3154 99.0609 26.3564C99.1839 26.3975 99.3161 26.418 99.4573 26.418C99.5622 26.418 99.6715 26.4089 99.7855 26.3906C99.904 26.3724 99.9905 26.3564 100.045 26.3428L100.052 27.3613C99.9518 27.3932 99.8196 27.4229 99.6556 27.4502C99.4961 27.4821 99.3024 27.498 99.0745 27.498C98.7646 27.498 98.4798 27.4365 98.22 27.3135C97.9603 27.1904 97.7529 26.9854 97.598 26.6982C97.443 26.4066 97.3655 26.0146 97.3655 25.5225V18.167H98.6439ZM106.355 27.3613H105.076V19.9648H106.355V27.3613ZM104.981 17.9961C104.981 17.7956 105.042 17.6247 105.165 17.4834C105.293 17.3421 105.48 17.2715 105.726 17.2715C105.972 17.2715 106.159 17.3421 106.286 17.4834C106.419 17.6247 106.485 17.7956 106.485 17.9961C106.485 18.1921 106.419 18.3607 106.286 18.502C106.159 18.6387 105.972 18.707 105.726 18.707C105.48 18.707 105.293 18.6387 105.165 18.502C105.042 18.3607 104.981 18.1921 104.981 17.9961ZM111.482 20.9287H107.476V19.9648H111.482V20.9287ZM110.101 18.167V25.5293C110.101 25.7845 110.14 25.9759 110.217 26.1035C110.295 26.2311 110.395 26.3154 110.518 26.3564C110.641 26.3975 110.773 26.418 110.914 26.418C111.019 26.418 111.129 26.4089 111.242 26.3906C111.361 26.3724 111.448 26.3564 111.502 26.3428L111.509 27.3613C111.409 27.3932 111.277 27.4229 111.113 27.4502C110.953 27.4821 110.759 27.498 110.532 27.498C110.222 27.498 109.937 27.4365 109.677 27.3135C109.417 27.1904 109.21 26.9854 109.055 26.6982C108.9 26.4066 108.823 26.0146 108.823 25.5225V18.167H110.101ZM116.096 23.5879C116.096 22.8724 116.233 22.2321 116.506 21.667C116.78 21.1019 117.167 20.6553 117.668 20.3271C118.17 19.9945 118.764 19.8281 119.452 19.8281C120.15 19.8281 120.751 19.9945 121.257 20.3271C121.763 20.6553 122.15 21.1019 122.419 21.667C122.693 22.2321 122.829 22.8724 122.829 23.5879V23.7451C122.829 24.4561 122.693 25.0964 122.419 25.666C122.15 26.2311 121.763 26.6777 121.257 27.0059C120.756 27.334 120.159 27.498 119.466 27.498C118.773 27.498 118.174 27.334 117.668 27.0059C117.167 26.6777 116.78 26.2311 116.506 25.666C116.233 25.0964 116.096 24.4561 116.096 23.7451V23.5879ZM117.374 23.7451C117.374 24.2327 117.452 24.6839 117.607 25.0986C117.762 25.5133 117.992 25.846 118.297 26.0967C118.607 26.3473 118.997 26.4727 119.466 26.4727C119.931 26.4727 120.316 26.3473 120.621 26.0967C120.931 25.846 121.164 25.5133 121.319 25.0986C121.474 24.6839 121.551 24.2327 121.551 23.7451V23.5879C121.551 23.1003 121.474 22.6491 121.319 22.2344C121.164 21.8197 120.931 21.487 120.621 21.2363C120.312 20.9811 119.922 20.8535 119.452 20.8535C118.992 20.8535 118.607 20.9811 118.297 21.2363C117.987 21.487 117.755 21.8197 117.6 22.2344C117.45 22.6491 117.374 23.1003 117.374 23.5879V23.7451ZM125.701 27.3613H124.422V19.9648H125.632L125.701 21.5439V27.3613ZM124.867 23.3555C124.876 22.681 125.006 22.0794 125.256 21.5508C125.507 21.0176 125.855 20.5983 126.302 20.293C126.753 19.9831 127.277 19.8281 127.874 19.8281C128.362 19.8281 128.781 19.9193 129.132 20.1016C129.488 20.2793 129.761 20.5641 129.952 20.9561C130.148 21.348 130.246 21.8675 130.246 22.5146V27.3613H128.968V22.501C128.968 22.1136 128.911 21.8014 128.797 21.5645C128.688 21.3275 128.524 21.1566 128.305 21.0518C128.086 20.9424 127.817 20.8877 127.498 20.8877C127.184 20.8877 126.899 20.9538 126.644 21.0859C126.389 21.2181 126.168 21.4004 125.981 21.6328C125.794 21.8652 125.65 22.1318 125.55 22.4326C125.45 22.7288 125.4 23.0433 125.4 23.376L124.867 23.3555Z" fill="#E1E3E2"/>
<path fill-rule="evenodd" clip-rule="evenodd" d="M78.9806 41.7462C78.9806 36.8488 83.097 32.8613 87.9944 32.8613C90.7019 32.8613 92.6283 33.9245 94.082 35.3091L92.3705 37.0207C91.3316 36.0453 89.9227 35.2885 87.9925 35.2885C84.4161 35.2885 81.6208 38.1679 81.6208 41.7443C81.6208 45.3207 84.4161 48.2038 87.9906 48.2038C90.3095 48.2038 91.6287 47.2733 92.4751 46.425C93.1683 45.7317 93.6224 44.7358 93.798 43.3699H87.9944V40.9483H96.1636C96.2495 41.3818 96.2944 41.9013 96.2944 42.4637C96.2944 44.2818 95.7955 46.5371 94.1904 48.1421C92.6283 49.7678 90.6365 50.6347 87.9925 50.6347C83.0932 50.6347 78.9769 46.6511 78.9769 41.7499L78.9806 41.7462ZM102.898 39.19C99.7343 39.19 97.152 41.5967 97.152 44.9096C97.152 48.2057 99.7325 50.6291 102.898 50.6291C106.063 50.6291 108.64 48.2019 108.64 44.9077C108.64 41.5948 106.061 39.1882 102.898 39.19ZM102.898 48.3794C101.166 48.3794 99.6689 46.95 99.6689 44.9115C99.6689 42.8523 101.164 41.4435 102.898 41.4435C104.63 41.4435 106.125 42.8505 106.125 44.9115C106.125 46.9481 104.632 48.3794 102.898 48.3794ZM115.426 39.19C112.263 39.19 109.684 41.5967 109.684 44.9096C109.684 48.2057 112.263 50.6291 115.426 50.6291C118.59 50.6291 121.168 48.2019 121.168 44.9077C121.168 41.5948 118.591 39.1882 115.426 39.19ZM115.426 48.3794C113.694 48.3794 112.197 46.95 112.197 44.9115C112.197 42.8523 113.692 41.4435 115.426 41.4435C117.158 41.4435 118.655 42.8505 118.655 44.9115C118.655 46.9481 117.158 48.3794 115.426 48.3794ZM130.802 39.5376V40.4681H130.716C130.154 39.7936 129.07 39.1882 127.706 39.1882C124.845 39.1882 122.22 41.7032 122.22 44.9339C122.22 48.1384 124.844 50.6329 127.706 50.6329C129.07 50.6329 130.154 50.0275 130.716 49.3343H130.802V50.1564C130.802 52.3444 129.633 53.516 127.747 53.516C126.208 53.516 125.255 52.4098 124.864 51.4812L122.674 52.3912C123.302 53.9065 124.972 55.7713 127.745 55.7713C130.69 55.7713 133.183 54.0355 133.183 49.8107V39.5357L130.802 39.5376ZM127.921 48.3794C126.189 48.3794 124.733 46.9257 124.733 44.9339C124.733 42.9196 126.187 41.4453 127.921 41.4453C129.633 41.4453 130.976 42.9177 130.976 44.9339C130.978 46.9257 129.634 48.3794 127.921 48.3794ZM134.919 33.4686H137.434V50.2853H134.919V33.4686ZM144.327 48.3794C143.049 48.3794 142.137 47.7927 141.556 46.6473L149.205 43.4802L148.942 42.8299C148.467 41.5537 147.014 39.19 144.045 39.19C141.098 39.19 138.648 41.5089 138.648 44.9115C138.648 48.116 141.075 50.631 144.327 50.631C146.95 50.631 148.467 49.0297 149.095 48.0954L147.144 46.7968C146.492 47.7516 145.603 48.3813 144.327 48.3794ZM144.131 41.4005C145.126 41.4005 145.971 41.8994 146.253 42.6132L141.137 44.7377C141.074 42.5272 142.851 41.4005 144.131 41.4005ZM160.241 33.4686H154.228V50.2853H156.737V43.9155H160.243C163.025 43.9155 165.761 41.9013 165.761 38.6911C165.761 35.4866 163.027 33.4705 160.247 33.4705L160.241 33.4686ZM160.306 41.5743H156.737V35.808H160.306C162.182 35.808 163.251 37.3645 163.251 38.6911C163.251 39.9954 162.182 41.5743 160.306 41.5743ZM169.653 50.2853V33.4686H167.143V50.2853H169.653ZM180.926 50.2554V43.809C180.926 40.8231 178.694 39.1583 175.815 39.1583C174.001 39.1583 172.119 39.9599 171.34 41.7331L173.567 42.6617C174.044 41.7331 174.929 41.4285 175.862 41.4285C177.159 41.4285 178.478 42.2077 178.498 43.5941V43.7679C178.044 43.5082 177.073 43.1177 175.88 43.1177C173.479 43.1177 171.035 44.4368 171.035 46.9033C171.035 49.1549 173.005 50.603 175.212 50.603C176.901 50.603 177.829 49.8462 178.412 48.9606H178.498V50.2592H180.924L180.926 50.2554ZM175.516 48.3757C174.694 48.3757 173.547 47.9646 173.547 46.95C173.547 45.6514 174.976 45.1506 176.209 45.1506C177.314 45.1506 177.831 45.3879 178.504 45.713C178.311 47.2228 177.035 48.357 175.516 48.3757ZM189.751 39.5264L186.873 46.8155H186.787L183.801 39.5264H181.097L185.574 49.7173L183.02 55.3845H185.638L192.538 39.5264H189.751Z" fill="white"/>
<defs>
<linearGradient id="paint0_linear_17562_7269" x1="47.2162" y1="20.5097" x2="19.4451" y2="27.9094" gradientUnits="userSpaceOnUse">
<stop stop-color="#00A0FF"/>
<stop offset="0.007" stop-color="#00A1FF"/>
<stop offset="0.26" stop-color="#00BEFF"/>
<stop offset="0.512" stop-color="#00D2FF"/>
<stop offset="0.76" stop-color="#00DFFF"/>
<stop offset="1" stop-color="#00E3FF"/>
</linearGradient>
<linearGradient id="paint1_linear_17562_7269" x1="64.0569" y1="36.3141" x2="30.1958" y2="36.3141" gradientUnits="userSpaceOnUse">
<stop stop-color="#FFE000"/>
<stop offset="0.409" stop-color="#FFBD00"/>
<stop offset="0.775" stop-color="#FFA500"/>
<stop offset="1" stop-color="#FF9C00"/>
</linearGradient>
<linearGradient id="paint2_linear_17562_7269" x1="51.4527" y1="39.5283" x2="29.1579" y2="77.0519" gradientUnits="userSpaceOnUse">
<stop stop-color="#FF3A44"/>
<stop offset="1" stop-color="#C31162"/>
</linearGradient>
<linearGradient id="paint3_linear_17562_7269" x1="26.9188" y1="8.57562" x2="36.8652" y2="25.3343" gradientUnits="userSpaceOnUse">
<stop stop-color="#32A071"/>
<stop offset="0.069" stop-color="#2DA771"/>
<stop offset="0.476" stop-color="#15CF74"/>
<stop offset="0.801" stop-color="#06E775"/>
<stop offset="1" stop-color="#00F076"/>
</linearGradient>
</defs>
</svg>
