<svg width="184" height="53" viewBox="0 0 184 53" fill="none" xmlns="http://www.w3.org/2000/svg">
<path fill-rule="evenodd" clip-rule="evenodd" d="M32.5237 11.9581C32.1864 12.3205 31.9926 12.8784 31.9926 13.6033V39.3878C31.9926 40.1127 32.1864 40.6706 32.5363 41.0204L32.6277 41.0977L47.0754 26.65V26.3254L32.6151 11.8809L32.5237 11.9581Z" fill="url(#paint0_linear_17576_63161)"/>
<path fill-rule="evenodd" clip-rule="evenodd" d="M51.8817 31.4843L47.0626 26.6637V26.3265L51.8832 21.5059L51.9872 21.5705L57.6888 24.8105C59.3214 25.7308 59.3214 27.2468 57.6888 28.1797L51.9872 31.4197C51.9857 31.4197 51.8817 31.4843 51.8817 31.4843Z" fill="url(#paint1_linear_17576_63161)"/>
<path fill-rule="evenodd" clip-rule="evenodd" d="M51.9855 31.4207L47.0625 26.4961L32.5234 41.0352C33.0545 41.6056 33.948 41.6702 34.9471 41.1124L51.9855 31.4207Z" fill="url(#paint2_linear_17576_63161)"/>
<path fill-rule="evenodd" clip-rule="evenodd" d="M51.9855 21.5722L34.9471 11.8931C33.9496 11.3227 33.0545 11.3999 32.5234 11.9704L47.0609 26.4952L51.9855 21.5722Z" fill="url(#paint3_linear_17576_63161)"/>
<path opacity="0.2" fill-rule="evenodd" clip-rule="evenodd" d="M51.8827 31.3164L34.9609 40.9308C34.0153 41.4745 33.1722 41.4367 32.6286 40.9435L32.5372 41.0349L32.6286 41.1121C33.1722 41.6037 34.0153 41.6431 34.9609 41.0995L51.9993 31.4204L51.8827 31.3164Z" fill="black"/>
<path opacity="0.12" fill-rule="evenodd" clip-rule="evenodd" d="M57.687 28.0121L51.8688 31.3167L51.9728 31.4207L57.6744 28.1807C58.4907 27.7142 58.8925 27.106 58.8925 26.4961C58.8405 27.054 58.4261 27.585 57.687 28.0121Z" fill="black"/>
<path opacity="0.25" fill-rule="evenodd" clip-rule="evenodd" d="M34.9474 12.0621L57.6873 24.9811C58.4264 25.3956 58.8409 25.9393 58.9055 26.4971C58.9055 25.8888 58.5036 25.279 57.6873 24.8125L34.9474 11.8935C33.3148 10.9605 31.9926 11.7375 31.9926 13.6033V13.7719C31.9926 11.9061 33.3148 11.1418 34.9474 12.0621Z" fill="white"/>
<path d="M76.9923 18.8857C76.9044 19.0127 76.7644 19.1576 76.5724 19.3203C76.3836 19.4798 76.1199 19.6198 75.7814 19.7402C75.4461 19.8574 75.0115 19.916 74.4777 19.916C73.9015 19.916 73.3888 19.7826 72.9396 19.5156C72.4936 19.2487 72.1437 18.863 71.8898 18.3584C71.6359 17.8538 71.5089 17.2484 71.5089 16.542V15.9805C71.5089 15.2741 71.6196 14.6702 71.8409 14.1689C72.0623 13.6644 72.3846 13.2786 72.8077 13.0117C73.2342 12.7448 73.7534 12.6113 74.3654 12.6113C74.909 12.6113 75.3647 12.7057 75.7325 12.8945C76.1004 13.0801 76.3868 13.3372 76.5919 13.666C76.8003 13.9948 76.9337 14.3691 76.9923 14.7891H76.045C76.0027 14.5319 75.9181 14.2975 75.7911 14.0859C75.6674 13.8711 75.49 13.7002 75.2589 13.5732C75.0278 13.443 74.7316 13.3779 74.3702 13.3779C73.9308 13.3779 73.5695 13.4837 73.2863 13.6953C73.0063 13.9036 72.798 14.2015 72.6613 14.5889C72.5278 14.9762 72.4611 15.4368 72.4611 15.9707V16.542C72.4611 17.0889 72.5457 17.5576 72.715 17.9482C72.8842 18.3356 73.1202 18.6335 73.423 18.8418C73.7257 19.0501 74.0789 19.1543 74.4825 19.1543C74.8178 19.1543 75.088 19.1266 75.2931 19.0713C75.5014 19.0127 75.6642 18.9443 75.7814 18.8662C75.8986 18.7848 75.9881 18.7083 76.0499 18.6367V17.0352H74.4093V16.2783H76.9923V18.8857ZM80.6105 19.916C80.1189 19.916 79.6909 19.807 79.3263 19.5889C78.965 19.3675 78.6834 19.0648 78.4816 18.6807C78.283 18.2965 78.1837 17.8571 78.1837 17.3623V17.1523C78.1837 16.5794 78.2928 16.0911 78.5109 15.6875C78.7322 15.2806 79.0187 14.9714 79.3702 14.7598C79.7251 14.5449 80.0994 14.4375 80.4933 14.4375C81.0011 14.4375 81.4145 14.5514 81.7335 14.7793C82.0558 15.0039 82.2918 15.3115 82.4415 15.7021C82.5945 16.0895 82.671 16.529 82.671 17.0205V17.4258H78.7257V16.6934H81.7579V16.625C81.7449 16.3906 81.6977 16.1628 81.6163 15.9414C81.535 15.7168 81.4047 15.5329 81.2257 15.3896C81.0467 15.2432 80.8025 15.1699 80.4933 15.1699C80.2198 15.1699 79.9773 15.248 79.7657 15.4043C79.5574 15.5573 79.393 15.7819 79.2726 16.0781C79.1554 16.3711 79.0968 16.7292 79.0968 17.1523V17.3623C79.0968 17.6976 79.1587 18.0036 79.2823 18.2803C79.406 18.5537 79.5851 18.7734 79.8195 18.9395C80.0538 19.1022 80.3338 19.1836 80.6593 19.1836C80.9783 19.1836 81.2485 19.1185 81.4698 18.9883C81.6912 18.8581 81.8849 18.6839 82.0509 18.4658L82.6027 18.8955C82.4334 19.1559 82.1892 19.3919 81.8702 19.6035C81.5545 19.8118 81.1346 19.916 80.6105 19.916ZM85.9474 15.2236H83.0861V14.5352H85.9474V15.2236ZM84.9611 13.251V18.5098C84.9611 18.6921 84.9887 18.8288 85.0441 18.9199C85.0994 19.0111 85.171 19.0713 85.2589 19.1006C85.3468 19.1299 85.4412 19.1445 85.5421 19.1445C85.617 19.1445 85.6951 19.138 85.7765 19.125C85.8611 19.112 85.923 19.1006 85.962 19.0908L85.9669 19.8184C85.8953 19.8411 85.8009 19.8623 85.6837 19.8818C85.5698 19.9046 85.4314 19.916 85.2687 19.916C85.0473 19.916 84.8439 19.8721 84.6583 19.7842C84.4728 19.6963 84.3247 19.5498 84.214 19.3447C84.1033 19.1364 84.048 18.8564 84.048 18.5049V13.251H84.9611ZM90.4689 19.8184H89.5558V14.5352H90.4689V19.8184ZM89.4874 13.1289C89.4874 12.9857 89.5314 12.8636 89.6193 12.7627C89.7104 12.6618 89.8439 12.6113 90.0197 12.6113C90.1954 12.6113 90.3289 12.6618 90.42 12.7627C90.5144 12.8636 90.5616 12.9857 90.5616 13.1289C90.5616 13.2689 90.5144 13.3893 90.42 13.4902C90.3289 13.5879 90.1954 13.6367 90.0197 13.6367C89.8439 13.6367 89.7104 13.5879 89.6193 13.4902C89.5314 13.3893 89.4874 13.2689 89.4874 13.1289ZM94.131 15.2236H91.2697V14.5352H94.131V15.2236ZM93.1447 13.251V18.5098C93.1447 18.6921 93.1723 18.8288 93.2277 18.9199C93.283 19.0111 93.3546 19.0713 93.4425 19.1006C93.5304 19.1299 93.6248 19.1445 93.7257 19.1445C93.8006 19.1445 93.8787 19.138 93.9601 19.125C94.0447 19.112 94.1066 19.1006 94.1456 19.0908L94.1505 19.8184C94.0789 19.8411 93.9845 19.8623 93.8673 19.8818C93.7534 19.9046 93.615 19.916 93.4523 19.916C93.2309 19.916 93.0275 19.8721 92.8419 19.7842C92.6564 19.6963 92.5083 19.5498 92.3976 19.3447C92.2869 19.1364 92.2316 18.8564 92.2316 18.5049V13.251H93.1447ZM97.4269 17.123C97.4269 16.612 97.5245 16.1546 97.7198 15.751C97.9152 15.3473 98.1919 15.0283 98.5499 14.7939C98.908 14.5563 99.3328 14.4375 99.8243 14.4375C100.322 14.4375 100.752 14.5563 101.113 14.7939C101.475 15.0283 101.751 15.3473 101.943 15.751C102.139 16.1546 102.236 16.612 102.236 17.123V17.2354C102.236 17.7432 102.139 18.2005 101.943 18.6074C101.751 19.0111 101.475 19.3301 101.113 19.5645C100.755 19.7988 100.329 19.916 99.8341 19.916C99.3393 19.916 98.9113 19.7988 98.5499 19.5645C98.1919 19.3301 97.9152 19.0111 97.7198 18.6074C97.5245 18.2005 97.4269 17.7432 97.4269 17.2354V17.123ZM98.34 17.2354C98.34 17.5837 98.3953 17.9059 98.506 18.2021C98.6167 18.4984 98.781 18.736 98.9991 18.915C99.2205 19.0941 99.4988 19.1836 99.8341 19.1836C100.166 19.1836 100.441 19.0941 100.659 18.915C100.881 18.736 101.047 18.4984 101.157 18.2021C101.268 17.9059 101.323 17.5837 101.323 17.2354V17.123C101.323 16.7747 101.268 16.4525 101.157 16.1562C101.047 15.86 100.881 15.6224 100.659 15.4434C100.438 15.2611 100.16 15.1699 99.8243 15.1699C99.4956 15.1699 99.2205 15.2611 98.9991 15.4434C98.7778 15.6224 98.6118 15.86 98.5011 16.1562C98.3937 16.4525 98.34 16.7747 98.34 17.123V17.2354ZM104.287 19.8184H103.374V14.5352H104.238L104.287 15.6631V19.8184ZM103.692 16.957C103.698 16.4753 103.791 16.0456 103.97 15.668C104.149 15.2871 104.398 14.9876 104.717 14.7695C105.039 14.5482 105.414 14.4375 105.84 14.4375C106.188 14.4375 106.488 14.5026 106.738 14.6328C106.992 14.7598 107.188 14.9632 107.324 15.2432C107.464 15.5231 107.534 15.8942 107.534 16.3564V19.8184H106.621V16.3467C106.621 16.07 106.581 15.847 106.499 15.6777C106.421 15.5085 106.304 15.3864 106.148 15.3115C105.991 15.2334 105.799 15.1943 105.571 15.1943C105.347 15.1943 105.143 15.2415 104.961 15.3359C104.779 15.4303 104.621 15.5605 104.487 15.7266C104.354 15.8926 104.251 16.083 104.18 16.2979C104.108 16.5094 104.072 16.734 104.072 16.9717L103.692 16.957Z" fill="#8F9492"/>
<path fill-rule="evenodd" clip-rule="evenodd" d="M70.9159 32.663C70.9159 29.1658 73.8554 26.3184 77.3526 26.3184C79.286 26.3184 80.6617 27.0776 81.6998 28.0663L80.4776 29.2885C79.7357 28.592 78.7296 28.0516 77.3513 28.0516C74.7974 28.0516 72.8013 30.1078 72.8013 32.6617C72.8013 35.2156 74.7974 37.2744 77.3499 37.2744C79.0058 37.2744 79.9478 36.6099 80.5523 36.0041C81.0473 35.5091 81.3715 34.7979 81.497 33.8225H77.3526V32.0933H83.1862C83.2476 32.4028 83.2796 32.7738 83.2796 33.1754C83.2796 34.4737 82.9233 36.0842 81.7772 37.2304C80.6617 38.3912 79.2393 39.0103 77.3513 39.0103C73.8527 39.0103 70.9132 36.1656 70.9132 32.6657L70.9159 32.663ZM87.9951 30.8377C85.7361 30.8377 83.8921 32.5563 83.8921 34.922C83.8921 37.2757 85.7347 39.0063 87.9951 39.0063C90.2554 39.0063 92.0954 37.2731 92.0954 34.9207C92.0954 32.5549 90.2541 30.8363 87.9951 30.8377ZM87.9951 37.3998C86.7582 37.3998 85.6894 36.3791 85.6894 34.9233C85.6894 33.4529 86.7568 32.4469 87.9951 32.4469C89.232 32.4469 90.2994 33.4516 90.2994 34.9233C90.2994 36.3777 89.2333 37.3998 87.9951 37.3998ZM96.9416 30.8377C94.6826 30.8377 92.8413 32.5563 92.8413 34.922C92.8413 37.2757 94.6826 39.0063 96.9416 39.0063C99.2006 39.0063 101.042 37.2731 101.042 34.9207C101.042 32.5549 99.202 30.8363 96.9416 30.8377ZM96.9416 37.3998C95.7047 37.3998 94.6359 36.3791 94.6359 34.9233C94.6359 33.4529 95.7034 32.4469 96.9416 32.4469C98.1785 32.4469 99.2473 33.4516 99.2473 34.9233C99.2473 36.3777 98.1785 37.3998 96.9416 37.3998ZM107.922 31.0859V31.7503H107.86C107.459 31.2687 106.685 30.8363 105.711 30.8363C103.668 30.8363 101.793 32.6323 101.793 34.9394C101.793 37.2277 103.667 39.009 105.711 39.009C106.685 39.009 107.459 38.5767 107.86 38.0817H107.922V38.6688C107.922 40.2312 107.086 41.0678 105.74 41.0678C104.641 41.0678 103.96 40.2779 103.681 39.6148L102.117 40.2646C102.566 41.3467 103.759 42.6784 105.739 42.6784C107.842 42.6784 109.622 41.4388 109.622 38.4219V31.0845L107.922 31.0859ZM105.864 37.3998C104.627 37.3998 103.588 36.3617 103.588 34.9394C103.588 33.501 104.626 32.4482 105.864 32.4482C107.086 32.4482 108.046 33.4996 108.046 34.9394C108.047 36.3617 107.088 37.3998 105.864 37.3998ZM110.861 26.752H112.657V38.7608H110.861V26.752ZM117.579 37.3998C116.667 37.3998 116.016 36.9808 115.601 36.1629L121.063 33.9013L120.875 33.4369C120.536 32.5256 119.498 30.8377 117.378 30.8377C115.274 30.8377 113.524 32.4936 113.524 34.9233C113.524 37.2117 115.258 39.0077 117.579 39.0077C119.453 39.0077 120.536 37.8642 120.985 37.197L119.592 36.2697C119.126 36.9515 118.491 37.4012 117.579 37.3998ZM117.439 32.4162C118.151 32.4162 118.754 32.7724 118.955 33.2821L115.302 34.7992C115.256 33.2208 116.525 32.4162 117.439 32.4162ZM128.944 26.752H124.65V38.7608H126.442V34.2121H128.945C130.932 34.2121 132.885 32.7738 132.885 30.4814C132.885 28.1931 130.933 26.7533 128.948 26.7533L128.944 26.752ZM128.99 32.5403H126.442V28.4226H128.99C130.33 28.4226 131.093 29.5341 131.093 30.4814C131.093 31.4128 130.33 32.5403 128.99 32.5403ZM135.665 38.7608V26.752H133.873V38.7608H135.665ZM143.715 38.7395V34.1361C143.715 32.0039 142.121 30.815 140.065 30.815C138.77 30.815 137.426 31.3874 136.87 32.6537L138.46 33.3168C138.8 32.6537 139.433 32.4362 140.099 32.4362C141.025 32.4362 141.967 32.9926 141.981 33.9826V34.1067C141.657 33.9213 140.963 33.6424 140.112 33.6424C138.397 33.6424 136.652 34.5844 136.652 36.3457C136.652 37.9536 138.058 38.9877 139.634 38.9877C140.84 38.9877 141.504 38.4473 141.92 37.8148H141.981V38.7421H143.713L143.715 38.7395ZM139.852 37.3972C139.265 37.3972 138.445 37.1036 138.445 36.3791C138.445 35.4517 139.466 35.0941 140.347 35.0941C141.135 35.0941 141.505 35.2636 141.985 35.4958C141.848 36.5739 140.937 37.3838 139.852 37.3972ZM150.017 31.0779L147.962 36.283H147.9L145.768 31.0779H143.837L147.034 38.3552L145.21 42.4022H147.08L152.007 31.0779H150.017Z" fill="#565E5B"/>
<defs>
<linearGradient id="paint0_linear_17576_63161" x1="45.778" y1="13.3261" x2="22.6354" y2="19.4925" gradientUnits="userSpaceOnUse">
<stop stop-color="#00A0FF"/>
<stop offset="0.007" stop-color="#00A1FF"/>
<stop offset="0.26" stop-color="#00BEFF"/>
<stop offset="0.512" stop-color="#00D2FF"/>
<stop offset="0.76" stop-color="#00DFFF"/>
<stop offset="1" stop-color="#00E3FF"/>
</linearGradient>
<linearGradient id="paint1_linear_17576_63161" x1="59.8133" y1="26.4958" x2="31.5957" y2="26.4958" gradientUnits="userSpaceOnUse">
<stop stop-color="#FFE000"/>
<stop offset="0.409" stop-color="#FFBD00"/>
<stop offset="0.775" stop-color="#FFA500"/>
<stop offset="1" stop-color="#FF9C00"/>
</linearGradient>
<linearGradient id="paint2_linear_17576_63161" x1="49.3085" y1="29.1751" x2="30.7295" y2="60.4448" gradientUnits="userSpaceOnUse">
<stop stop-color="#FF3A44"/>
<stop offset="1" stop-color="#C31162"/>
</linearGradient>
<linearGradient id="paint3_linear_17576_63161" x1="28.8636" y1="3.38056" x2="37.1523" y2="17.3461" gradientUnits="userSpaceOnUse">
<stop stop-color="#32A071"/>
<stop offset="0.069" stop-color="#2DA771"/>
<stop offset="0.476" stop-color="#15CF74"/>
<stop offset="0.801" stop-color="#06E775"/>
<stop offset="1" stop-color="#00F076"/>
</linearGradient>
</defs>
</svg>
