<svg width="32" height="32" viewBox="0 0 32 32" fill="none" xmlns="http://www.w3.org/2000/svg">
<circle cx="16" cy="16" r="15.5" stroke="#3B4742"/>
<path d="M10.197 12.6512H12.6846V20.6666H10.197V12.6512ZM11.4418 11.5554C12.2361 11.5554 12.8837 10.9088 12.8837 10.111C12.8837 9.31533 12.2382 8.66663 11.4418 8.66663C10.6455 8.66663 10 9.31323 10 10.111C9.99791 10.9088 10.6434 11.5554 11.4418 11.5554ZM16.7293 16.7009C16.7293 15.6554 16.9284 14.6435 18.2214 14.6435C19.4956 14.6435 19.5145 15.8381 19.5145 16.7681V20.6666H22V16.2705C22 14.1124 21.5348 12.4518 19.0178 12.4518C17.8086 12.4518 16.9976 13.1173 16.6643 13.7471H16.6308V12.6512H14.2438V20.6666H16.7293V16.7009Z" fill="#3B4742"/>
</svg>
