<svg width="176" height="49" viewBox="0 0 176 49" fill="none" xmlns="http://www.w3.org/2000/svg">
<g clip-path="url(#clip0_1303_6501)">
<path fill-rule="evenodd" clip-rule="evenodd" d="M31.3331 21.5H28.5V24.5H31.3331C32.1619 24.5 32.8331 23.8281 32.8331 23C32.8331 22.1719 32.1619 21.5 31.3331 21.5ZM30 14.5C24.4769 14.5 20 18.9769 20 24.5C20 30.0231 24.4769 34.5 30 34.5C35.5225 34.5 40 30.0231 40 24.5C40 18.9769 35.5225 14.5 30 14.5ZM31.3331 26.5H28.5V29.5H26.5V19.5H31.3331C33.2662 19.5 34.8331 21.0669 34.8331 23C34.8331 24.9331 33.2662 26.5 31.3331 26.5Z" fill="white"/>
</g>
<path d="M50.5469 26.9453H54.0156C54.8073 26.9453 55.5 26.7865 56.0938 26.4688C56.6875 26.151 57.1484 25.7031 57.4766 25.125C57.8099 24.5469 57.9766 23.8698 57.9766 23.0938V23.0781C57.9766 22.3073 57.8099 21.6328 57.4766 21.0547C57.1484 20.4766 56.6875 20.0286 56.0938 19.7109C55.5 19.388 54.8073 19.2266 54.0156 19.2266H50.5469V21.0938H53.4375C54.1146 21.0938 54.6406 21.2656 55.0156 21.6094C55.3958 21.9531 55.5859 22.4453 55.5859 23.0859V23.1016C55.5859 23.7422 55.3958 24.237 55.0156 24.5859C54.6406 24.9297 54.1146 25.1016 53.4375 25.1016H50.5469V26.9453ZM49.3672 30.5H51.7266V19.2266H49.3672V30.5ZM59.9219 30.5H62.2031V25.6875C62.2031 25.2812 62.2891 24.9323 62.4609 24.6406C62.6328 24.349 62.8776 24.125 63.1953 23.9688C63.513 23.8073 63.888 23.7266 64.3203 23.7266C64.4974 23.7266 64.6719 23.7396 64.8438 23.7656C65.0208 23.7865 65.1953 23.8177 65.3672 23.8594V21.8672C65.2526 21.8359 65.1198 21.8099 64.9688 21.7891C64.8229 21.7682 64.6719 21.7578 64.5156 21.7578C63.9583 21.7578 63.4922 21.888 63.1172 22.1484C62.7422 22.4036 62.4844 22.7656 62.3438 23.2344H62.2031V21.8984H59.9219V30.5ZM70.5234 30.6797C71.4089 30.6797 72.1667 30.5026 72.7969 30.1484C73.4323 29.7891 73.9193 29.276 74.2578 28.6094C74.5964 27.9375 74.7656 27.1354 74.7656 26.2031V26.1875C74.7656 25.2604 74.5938 24.4635 74.25 23.7969C73.9062 23.125 73.4167 22.6094 72.7812 22.25C72.151 21.8906 71.3984 21.7109 70.5234 21.7109C69.6484 21.7109 68.8932 21.8932 68.2578 22.2578C67.6276 22.6172 67.1406 23.1302 66.7969 23.7969C66.4531 24.4635 66.2812 25.2604 66.2812 26.1875V26.2031C66.2812 27.1354 66.4505 27.9375 66.7891 28.6094C67.1276 29.276 67.6146 29.7891 68.25 30.1484C68.8854 30.5026 69.6432 30.6797 70.5234 30.6797ZM70.5234 28.8906C70.1172 28.8906 69.7708 28.7865 69.4844 28.5781C69.2031 28.3646 68.987 28.0573 68.8359 27.6562C68.6901 27.2552 68.6172 26.7708 68.6172 26.2031V26.1875C68.6172 25.625 68.6927 25.1458 68.8438 24.75C68.9948 24.349 69.2109 24.0417 69.4922 23.8281C69.7786 23.6094 70.1224 23.5 70.5234 23.5C70.9245 23.5 71.2656 23.6094 71.5469 23.8281C71.8333 24.0417 72.0521 24.349 72.2031 24.75C72.3542 25.1458 72.4297 25.625 72.4297 26.1875V26.2031C72.4297 26.7656 72.3542 27.2474 72.2031 27.6484C72.0521 28.0495 71.8359 28.3568 71.5547 28.5703C71.2734 28.7839 70.9297 28.8906 70.5234 28.8906ZM79.6953 30.6328C80.3047 30.6328 80.8307 30.5052 81.2734 30.25C81.7161 29.9896 82.0469 29.6276 82.2656 29.1641H82.4062V30.5H84.6875V18.6094H82.4062V23.2734H82.2656C82.0521 22.8047 81.7161 22.4349 81.2578 22.1641C80.8047 21.8932 80.2839 21.7578 79.6953 21.7578C78.9661 21.7578 78.3411 21.9349 77.8203 22.2891C77.2995 22.6432 76.8984 23.151 76.6172 23.8125C76.3411 24.474 76.2031 25.2656 76.2031 26.1875V26.2031C76.2031 27.1198 76.3438 27.9089 76.625 28.5703C76.9115 29.2318 77.3151 29.7422 77.8359 30.1016C78.362 30.4557 78.9818 30.6328 79.6953 30.6328ZM80.4688 28.7422C80.0677 28.7422 79.7214 28.6406 79.4297 28.4375C79.138 28.2344 78.9141 27.9427 78.7578 27.5625C78.6016 27.1823 78.5234 26.7292 78.5234 26.2031V26.1875C78.5234 25.6615 78.6016 25.2109 78.7578 24.8359C78.9141 24.4557 79.138 24.1641 79.4297 23.9609C79.7266 23.7526 80.0729 23.6484 80.4688 23.6484C80.8698 23.6484 81.2161 23.7526 81.5078 23.9609C81.8047 24.1641 82.0312 24.4557 82.1875 24.8359C82.349 25.2109 82.4297 25.6641 82.4297 26.1953V26.2109C82.4297 26.7318 82.349 27.1823 82.1875 27.5625C82.0312 27.9427 81.8073 28.2344 81.5156 28.4375C81.224 28.6406 80.875 28.7422 80.4688 28.7422ZM89.8906 30.6797C90.5052 30.6797 91.026 30.5469 91.4531 30.2812C91.8802 30.0104 92.1901 29.6406 92.3828 29.1719H92.5234V30.5H94.8047V21.8984H92.5234V26.8672C92.5234 27.2526 92.4557 27.5911 92.3203 27.8828C92.1901 28.1693 91.9948 28.3932 91.7344 28.5547C91.4792 28.7109 91.1641 28.7891 90.7891 28.7891C90.2474 28.7891 89.8542 28.6328 89.6094 28.3203C89.3698 28.0078 89.25 27.5469 89.25 26.9375V21.8984H86.9688V27.4609C86.9688 28.1432 87.0781 28.7266 87.2969 29.2109C87.5156 29.6901 87.8411 30.0547 88.2734 30.3047C88.7109 30.5547 89.25 30.6797 89.8906 30.6797ZM100.883 30.6797C101.633 30.6797 102.279 30.5547 102.82 30.3047C103.362 30.0495 103.792 29.6901 104.109 29.2266C104.427 28.763 104.628 28.2214 104.711 27.6016V27.5469L102.602 27.5547L102.586 27.5781C102.487 28.0156 102.297 28.3438 102.016 28.5625C101.734 28.7812 101.359 28.8906 100.891 28.8906C100.484 28.8906 100.141 28.7865 99.8594 28.5781C99.5781 28.3698 99.362 28.0651 99.2109 27.6641C99.0651 27.2578 98.9922 26.7656 98.9922 26.1875V26.1719C98.9922 25.5938 99.0651 25.1068 99.2109 24.7109C99.3568 24.3151 99.5703 24.0156 99.8516 23.8125C100.138 23.6042 100.484 23.5 100.891 23.5C101.38 23.5 101.766 23.6276 102.047 23.8828C102.333 24.1328 102.516 24.4661 102.594 24.8828L102.602 24.8984H104.719V24.875C104.651 24.2344 104.458 23.6771 104.141 23.2031C103.823 22.7292 103.391 22.362 102.844 22.1016C102.297 21.8411 101.643 21.7109 100.883 21.7109C99.987 21.7109 99.224 21.888 98.5938 22.2422C97.9688 22.5911 97.4922 23.0964 97.1641 23.7578C96.8359 24.4193 96.6719 25.224 96.6719 26.1719V26.1875C96.6719 27.1406 96.8359 27.9531 97.1641 28.625C97.4922 29.2917 97.9688 29.8021 98.5938 30.1562C99.224 30.5052 99.987 30.6797 100.883 30.6797ZM110.148 30.5312C110.372 30.5312 110.583 30.5208 110.781 30.5C110.979 30.4792 111.148 30.4557 111.289 30.4297V28.7344C111.18 28.7448 111.076 28.7552 110.977 28.7656C110.883 28.7708 110.763 28.7734 110.617 28.7734C110.232 28.7734 109.951 28.6849 109.773 28.5078C109.602 28.3255 109.516 28.0417 109.516 27.6562V23.6172H111.289V21.8984H109.516V19.8438H107.211V21.8984H105.883V23.6172H107.211V28.1797C107.211 29.013 107.44 29.6146 107.898 29.9844C108.357 30.349 109.107 30.5312 110.148 30.5312ZM117.539 30.5H119.898V25.75H124.977V30.5H127.336V19.2266H124.977V23.8047H119.898V19.2266H117.539V30.5ZM132.688 30.6797C133.302 30.6797 133.823 30.5469 134.25 30.2812C134.677 30.0104 134.987 29.6406 135.18 29.1719H135.32V30.5H137.602V21.8984H135.32V26.8672C135.32 27.2526 135.253 27.5911 135.117 27.8828C134.987 28.1693 134.792 28.3932 134.531 28.5547C134.276 28.7109 133.961 28.7891 133.586 28.7891C133.044 28.7891 132.651 28.6328 132.406 28.3203C132.167 28.0078 132.047 27.5469 132.047 26.9375V21.8984H129.766V27.4609C129.766 28.1432 129.875 28.7266 130.094 29.2109C130.312 29.6901 130.638 30.0547 131.07 30.3047C131.508 30.5547 132.047 30.6797 132.688 30.6797ZM139.891 30.5H142.172V25.5234C142.172 25.1328 142.24 24.7943 142.375 24.5078C142.516 24.2214 142.711 24 142.961 23.8438C143.216 23.6823 143.518 23.6016 143.867 23.6016C144.409 23.6016 144.807 23.7578 145.062 24.0703C145.318 24.3828 145.445 24.8438 145.445 25.4531V30.5H147.727V24.9375C147.727 23.9062 147.474 23.112 146.969 22.5547C146.469 21.9922 145.74 21.7109 144.781 21.7109C144.167 21.7109 143.651 21.8464 143.234 22.1172C142.818 22.388 142.51 22.7578 142.312 23.2266H142.172V21.8984H139.891V30.5ZM153.508 30.5312C153.732 30.5312 153.943 30.5208 154.141 30.5C154.339 30.4792 154.508 30.4557 154.648 30.4297V28.7344C154.539 28.7448 154.435 28.7552 154.336 28.7656C154.242 28.7708 154.122 28.7734 153.977 28.7734C153.591 28.7734 153.31 28.6849 153.133 28.5078C152.961 28.3255 152.875 28.0417 152.875 27.6562V23.6172H154.648V21.8984H152.875V19.8438H150.57V21.8984H149.242V23.6172H150.57V28.1797C150.57 29.013 150.799 29.6146 151.258 29.9844C151.716 30.349 152.466 30.5312 153.508 30.5312Z" fill="white"/>
<path d="M6.55211 47.1921L6.09812 48.0831L6.55211 47.1921ZM1.30792 41.9479L0.416915 42.4019L1.30792 41.9479ZM174.692 41.9479L173.801 41.4939L174.692 41.9479ZM169.448 47.1921L169.902 48.0831L169.448 47.1921ZM169.448 1.80792L169.902 0.916915L169.448 1.80792ZM174.692 7.05211L175.583 6.59812L174.692 7.05211ZM19.2 1.5H156.8V-0.5H19.2V1.5ZM175 19.7V29.3H177V19.7H175ZM156.8 47.5H19.2V49.5H156.8V47.5ZM1 29.3V19.7H-1V29.3H1ZM19.2 47.5C15.8232 47.5 13.3507 47.4992 11.3999 47.3398C9.46067 47.1814 8.12511 46.8712 7.0061 46.3011L6.09812 48.0831C7.54606 48.8208 9.17412 49.1646 11.237 49.3332C13.2882 49.5008 15.8562 49.5 19.2 49.5V47.5ZM-1 29.3C-1 32.6438 -1.00078 35.2118 -0.833189 37.263C-0.664646 39.3259 -0.320846 40.9539 0.416915 42.4019L2.19893 41.4939C1.62877 40.3749 1.31861 39.0393 1.16017 37.1001C1.00078 35.1493 1 32.6768 1 29.3H-1ZM7.0061 46.3011C4.93632 45.2465 3.25354 43.5637 2.19893 41.4939L0.416915 42.4019C1.66327 44.848 3.65202 46.8367 6.09812 48.0831L7.0061 46.3011ZM175 29.3C175 32.6768 174.999 35.1493 174.84 37.1001C174.681 39.0393 174.371 40.3749 173.801 41.4939L175.583 42.4019C176.321 40.9539 176.665 39.3259 176.833 37.263C177.001 35.2118 177 32.6438 177 29.3H175ZM156.8 49.5C160.144 49.5 162.712 49.5008 164.763 49.3332C166.826 49.1646 168.454 48.8208 169.902 48.0831L168.994 46.3011C167.875 46.8712 166.539 47.1814 164.6 47.3398C162.649 47.4992 160.177 47.5 156.8 47.5V49.5ZM173.801 41.4939C172.746 43.5637 171.064 45.2465 168.994 46.3011L169.902 48.0831C172.348 46.8367 174.337 44.848 175.583 42.4019L173.801 41.4939ZM156.8 1.5C160.177 1.5 162.649 1.50078 164.6 1.66017C166.539 1.81861 167.875 2.12877 168.994 2.69893L169.902 0.916915C168.454 0.179154 166.826 -0.164646 164.763 -0.333189C162.712 -0.500778 160.144 -0.5 156.8 -0.5V1.5ZM177 19.7C177 16.3562 177.001 13.7882 176.833 11.737C176.665 9.67413 176.321 8.04606 175.583 6.59812L173.801 7.5061C174.371 8.62511 174.681 9.96067 174.84 11.8999C174.999 13.8507 175 16.3232 175 19.7H177ZM168.994 2.69893C171.064 3.75354 172.746 5.43632 173.801 7.5061L175.583 6.59812C174.337 4.15202 172.348 2.16327 169.902 0.916915L168.994 2.69893ZM19.2 -0.5C15.8562 -0.5 13.2882 -0.500778 11.237 -0.333189C9.17413 -0.164646 7.54606 0.179154 6.09812 0.916915L7.0061 2.69893C8.12511 2.12877 9.46067 1.81861 11.3999 1.66017C13.3507 1.50078 15.8232 1.5 19.2 1.5V-0.5ZM1 19.7C1 16.3232 1.00078 13.8507 1.16017 11.8999C1.31861 9.96067 1.62877 8.62511 2.19893 7.5061L0.416915 6.59812C-0.320846 8.04606 -0.664646 9.67413 -0.833189 11.737C-1.00078 13.7882 -1 16.3562 -1 19.7H1ZM6.09812 0.916915C3.65202 2.16327 1.66327 4.15202 0.416915 6.59812L2.19893 7.5061C3.25354 5.43632 4.93632 3.75354 7.0061 2.69893L6.09812 0.916915Z" fill="white"/>
<defs>
<clipPath id="clip0_1303_6501">
<rect width="20" height="20" fill="white" transform="translate(20 14.5)"/>
</clipPath>
</defs>
</svg>
