<svg width="32" height="32" viewBox="0 0 32 32" fill="none" xmlns="http://www.w3.org/2000/svg">
<circle cx="16" cy="16" r="15.5" stroke="#3B4742"/>
<path d="M21.2967 13.4922C21.3041 13.6133 21.3041 13.7395 21.3041 13.8631C21.3041 17.6444 18.5543 22 13.5294 22C11.9799 22 10.5435 21.5286 9.33337 20.7172C9.55474 20.743 9.76626 20.7533 9.99254 20.7533C11.2715 20.7533 12.4472 20.3 13.3843 19.5324C12.184 19.5066 11.1756 18.6824 10.8313 17.5491C11.2518 17.6134 11.6306 17.6134 12.0635 17.4975C10.814 17.2322 9.87694 16.0809 9.87694 14.69V14.6539C10.2385 14.8677 10.664 14.9991 11.1092 15.0171C10.3492 14.4865 9.8917 13.5927 9.8917 12.6371C9.8917 12.1039 10.0245 11.6171 10.2631 11.1947C11.6085 12.9307 13.6302 14.0641 15.8955 14.1851C15.5094 12.2404 16.8966 10.6666 18.5641 10.6666C19.3512 10.6666 20.0596 11.0118 20.5589 11.5681C21.1762 11.4471 21.7665 11.205 22.2929 10.8804C22.0887 11.5424 21.6607 12.1013 21.0926 12.4542C21.6435 12.3924 22.1748 12.2327 22.6667 12.0086C22.2953 12.5804 21.8305 13.0878 21.2967 13.4922Z" fill="#3B4742"/>
</svg>
