<svg width="135" height="36" viewBox="0 0 135 36" fill="none" xmlns="http://www.w3.org/2000/svg">
<path fill-rule="evenodd" clip-rule="evenodd" d="M43.8047 6.07619e-06C41.625 6.07619e-06 40.1978 1.19531 40.1978 3.32812C40.1978 5.46094 40.1978 33.3416 40.1978 33.3416C40.1978 34.8091 41.3691 35.9993 42.8146 35.9993C44.26 35.9993 45.4313 34.8091 45.4313 33.3416V22.7816H55.8264L63.4375 34.7809C64.2201 36.0148 65.8396 36.3708 67.0546 35.5757C68.2694 34.7807 68.6196 33.1361 67.8371 31.9023L61.4709 21.8657C61.9168 21.6983 62.3797 21.4994 62.8465 21.2628C65.6769 19.8285 68.7198 16.9202 68.7198 11.6268C68.7198 5.79385 65.0625 6.07619e-06 57.7192 6.07619e-06C50.3759 6.07619e-06 45.9844 6.07619e-06 43.8047 6.07619e-06ZM45.4313 5.31534V17.4663C49.3131 17.4663 54.03 17.4481 57.3314 17.4481C60.6328 17.4481 63.4863 15.1738 63.4863 11.6268C63.4863 8.55271 61.4709 5.31534 57.5339 5.31534C53.5969 5.31534 45.4313 5.31534 45.4313 5.31534Z" fill="#1EC373"/>
<path d="M14.5436 6.07619e-06C13.4691 6.07619e-06 12.504 0.667044 12.1096 1.68183L0.183473 32.3658C-0.347074 33.7308 0.31213 35.2745 1.65645 35.8136C3.0009 36.3527 4.5208 35.6826 5.05141 34.3175L16.1799 5.68572L26.0459 30.684H10.738C9.2925 30.684 8.1212 31.8741 8.1212 33.3416C8.1212 34.8091 9.2925 35.9993 10.738 35.9993H29.914C30.7827 35.9993 31.5948 35.5614 32.0814 34.8306C32.5681 34.0999 32.666 33.1716 32.3428 32.3528L20.2328 1.66885C19.835 0.660915 18.8734 6.07619e-06 17.804 6.07619e-06H14.5436Z" fill="#1EC373"/>
<path d="M100.888 0.829637C99.8941 -0.235852 98.2377 -0.281044 97.1887 0.728758L86.3966 11.1175L86.3944 11.1196L82.0432 15.3336V2.65767C82.0432 1.19015 80.8719 6.07619e-06 79.4265 6.07619e-06C77.981 6.07619e-06 76.8097 1.19015 76.8097 2.65767V33.3416C76.8097 34.8091 77.981 35.9993 79.4265 35.9993C80.8719 35.9993 82.0432 34.8091 82.0432 33.3416V22.6781L87.841 17.0632L100.598 34.9033C101.447 36.091 103.083 36.3546 104.253 35.4919C105.422 34.6292 105.681 32.9674 104.832 31.7799L91.6666 13.3679L100.789 4.58659C101.838 3.57695 101.882 1.89497 100.888 0.829637Z" fill="#1EC373"/>
<path d="M112.821 6.07619e-06C111.375 6.07619e-06 110.204 1.19015 110.204 2.65767C110.204 4.1252 111.375 5.31534 112.821 5.31534H129.766V5.8759L118.343 32.2723C117.762 33.6157 118.363 35.1838 119.686 35.7746C121.009 36.3654 122.553 35.7546 123.135 34.411L134.779 7.50352C134.925 7.16649 135 6.80234 135 6.43416V2.65767C135 1.19015 133.829 6.07619e-06 132.383 6.07619e-06H112.821Z" fill="#1EC373"/>
</svg>
