<svg width="212" height="72" viewBox="0 0 212 72" fill="none" xmlns="http://www.w3.org/2000/svg">
<path d="M55.692 37.3577C55.692 34.3847 57.0579 32.2152 59.7095 30.5278C58.1829 28.3584 55.933 27.2334 52.96 26.9924C50.0674 26.7513 46.9337 28.5994 45.8088 28.5994C44.6035 28.5994 41.8716 27.0727 39.7021 27.0727C35.2024 27.1531 30.4617 30.6082 30.4617 37.7595C30.4617 39.8486 30.7831 42.0181 31.5866 44.2679C32.6312 47.2409 36.3273 54.4725 40.1842 54.3118C42.193 54.3118 43.6393 52.8655 46.2909 52.8655C48.8621 52.8655 50.1477 54.3118 52.3976 54.3118C56.3348 54.3118 59.7095 47.723 60.6737 44.75C55.4509 42.2591 55.692 37.5184 55.692 37.3577ZM51.1923 24.1801C53.3618 21.6089 53.1207 19.1983 53.1207 18.3145C51.1923 18.4752 48.9425 19.6804 47.6568 21.1267C46.2105 22.7338 45.407 24.7426 45.5677 26.912C47.6568 27.0727 49.5853 26.0282 51.1923 24.1801Z" fill="white"/>
<path d="M78.4443 27.3613L78.4579 26.2949H80.5224C81.2288 26.2949 81.8189 26.1468 82.2929 25.8506C82.7669 25.5498 83.1223 25.1305 83.3593 24.5928C83.6009 24.0505 83.7216 23.4147 83.7216 22.6855V22.0703C83.7216 21.3092 83.6009 20.6621 83.3593 20.1289C83.1223 19.5957 82.7737 19.1878 82.3134 18.9053C81.8531 18.6227 81.2949 18.4814 80.6386 18.4814H78.4033V17.4082H80.6386C81.5136 17.4082 82.2792 17.5996 82.9355 17.9824C83.5963 18.3607 84.1113 18.9007 84.4804 19.6025C84.8495 20.2998 85.0341 21.127 85.0341 22.084V22.6855C85.0341 23.6471 84.8495 24.4766 84.4804 25.1738C84.1113 25.8711 83.5895 26.4111 82.915 26.7939C82.2405 27.1722 81.443 27.3613 80.5224 27.3613H78.4443ZM79.1552 27.3613H77.829V17.4082H79.1552V27.3613ZM86.4902 23.5879C86.4902 22.8724 86.6269 22.2321 86.9003 21.667C87.1738 21.1019 87.5611 20.6553 88.0624 20.3271C88.5637 19.9945 89.1585 19.8281 89.8466 19.8281C90.5439 19.8281 91.1454 19.9945 91.6513 20.3271C92.1572 20.6553 92.5445 21.1019 92.8134 21.667C93.0869 22.2321 93.2236 22.8724 93.2236 23.5879V23.7451C93.2236 24.4561 93.0869 25.0964 92.8134 25.666C92.5445 26.2311 92.1572 26.6777 91.6513 27.0059C91.15 27.334 90.553 27.498 89.8603 27.498C89.1676 27.498 88.5683 27.334 88.0624 27.0059C87.5611 26.6777 87.1738 26.2311 86.9003 25.666C86.6269 25.0964 86.4902 24.4561 86.4902 23.7451V23.5879ZM87.7685 23.7451C87.7685 24.2327 87.846 24.6839 88.0009 25.0986C88.1559 25.5133 88.386 25.846 88.6913 26.0967C89.0012 26.3473 89.3909 26.4727 89.8603 26.4727C90.3251 26.4727 90.7102 26.3473 91.0156 26.0967C91.3255 25.846 91.5579 25.5133 91.7128 25.0986C91.8678 24.6839 91.9453 24.2327 91.9453 23.7451V23.5879C91.9453 23.1003 91.8678 22.6491 91.7128 22.2344C91.5579 21.8197 91.3255 21.487 91.0156 21.2363C90.7057 20.9811 90.316 20.8535 89.8466 20.8535C89.3863 20.8535 89.0012 20.9811 88.6913 21.2363C88.3814 21.487 88.149 21.8197 87.9941 22.2344C87.8437 22.6491 87.7685 23.1003 87.7685 23.5879V23.7451ZM98.5898 19.9648H99.4306L99.2665 21.1816L97.332 27.3613H96.5185L96.6894 26.0352L98.5898 19.9648ZM97.0449 26.1035L97.1542 27.3613H96.2997L94.1533 19.9648H95.4247L97.0449 26.1035ZM102.787 19.9648H104.052L101.905 27.3613H101.058L101.242 26.0625L102.787 19.9648ZM101.481 25.9395L101.686 27.3613H100.873L98.8837 21.168L98.7265 19.9648H99.622L101.481 25.9395ZM106.622 27.3613H105.344V19.9648H106.554L106.622 21.5439V27.3613ZM105.788 23.3555C105.797 22.681 105.927 22.0794 106.178 21.5508C106.428 21.0176 106.777 20.5983 107.224 20.293C107.675 19.9831 108.199 19.8281 108.796 19.8281C109.283 19.8281 109.703 19.9193 110.054 20.1016C110.409 20.2793 110.683 20.5641 110.874 20.9561C111.07 21.348 111.168 21.8675 111.168 22.5146V27.3613H109.89V22.501C109.89 22.1136 109.833 21.8014 109.719 21.5645C109.609 21.3275 109.445 21.1566 109.227 21.0518C109.008 20.9424 108.739 20.8877 108.42 20.8877C108.105 20.8877 107.821 20.9538 107.565 21.0859C107.31 21.2181 107.089 21.4004 106.902 21.6328C106.715 21.8652 106.572 22.1318 106.472 22.4326C106.371 22.7288 106.321 23.0433 106.321 23.376L105.788 23.3555ZM114.47 27.3613H113.191V16.8613H114.47V27.3613ZM116.158 23.5879C116.158 22.8724 116.295 22.2321 116.568 21.667C116.842 21.1019 117.229 20.6553 117.73 20.3271C118.232 19.9945 118.826 19.8281 119.515 19.8281C120.212 19.8281 120.813 19.9945 121.319 20.3271C121.825 20.6553 122.213 21.1019 122.481 21.667C122.755 22.2321 122.892 22.8724 122.892 23.5879V23.7451C122.892 24.4561 122.755 25.0964 122.481 25.666C122.213 26.2311 121.825 26.6777 121.319 27.0059C120.818 27.334 120.221 27.498 119.528 27.498C118.836 27.498 118.236 27.334 117.73 27.0059C117.229 26.6777 116.842 26.2311 116.568 25.666C116.295 25.0964 116.158 24.4561 116.158 23.7451V23.5879ZM117.436 23.7451C117.436 24.2327 117.514 24.6839 117.669 25.0986C117.824 25.5133 118.054 25.846 118.359 26.0967C118.669 26.3473 119.059 26.4727 119.528 26.4727C119.993 26.4727 120.378 26.3473 120.684 26.0967C120.993 25.846 121.226 25.5133 121.381 25.0986C121.536 24.6839 121.613 24.2327 121.613 23.7451V23.5879C121.613 23.1003 121.536 22.6491 121.381 22.2344C121.226 21.8197 120.993 21.487 120.684 21.2363C120.374 20.9811 119.984 20.8535 119.515 20.8535C119.054 20.8535 118.669 20.9811 118.359 21.2363C118.049 21.487 117.817 21.8197 117.662 22.2344C117.512 22.6491 117.436 23.1003 117.436 23.5879V23.7451ZM128.846 22.2891C128.846 21.847 128.713 21.4961 128.449 21.2363C128.189 20.972 127.804 20.8398 127.294 20.8398C126.979 20.8398 126.701 20.8945 126.46 21.0039C126.223 21.1133 126.038 21.2568 125.906 21.4346C125.774 21.6123 125.708 21.806 125.708 22.0156H124.43C124.43 21.6602 124.55 21.3161 124.792 20.9834C125.033 20.6462 125.373 20.3704 125.81 20.1562C126.253 19.9375 126.772 19.8281 127.369 19.8281C127.907 19.8281 128.383 19.9193 128.798 20.1016C129.213 20.2839 129.536 20.5596 129.768 20.9287C130.005 21.2933 130.124 21.7513 130.124 22.3027V25.748C130.124 25.9941 130.144 26.2562 130.185 26.5342C130.231 26.8122 130.297 27.0514 130.384 27.252V27.3613H129.051C128.987 27.2155 128.937 27.0218 128.9 26.7803C128.864 26.5342 128.846 26.3063 128.846 26.0967V22.2891ZM129.078 23.7656H127.807C127.087 23.7656 126.531 23.8796 126.139 24.1074C125.747 24.3353 125.551 24.6771 125.551 25.1328C125.551 25.4883 125.669 25.7891 125.906 26.0352C126.148 26.2812 126.499 26.4043 126.959 26.4043C127.346 26.4043 127.688 26.3223 127.984 26.1582C128.281 25.9941 128.515 25.7913 128.688 25.5498C128.862 25.3083 128.955 25.0758 128.969 24.8525L129.516 25.4609C129.484 25.6523 129.397 25.8643 129.256 26.0967C129.115 26.3291 128.925 26.5524 128.688 26.7666C128.456 26.9762 128.178 27.1517 127.854 27.293C127.535 27.4297 127.175 27.498 126.774 27.498C126.273 27.498 125.833 27.4023 125.455 27.2109C125.081 27.015 124.79 26.7507 124.58 26.418C124.375 26.0853 124.272 25.7161 124.272 25.3105C124.272 24.513 124.573 23.9092 125.175 23.499C125.776 23.0843 126.585 22.877 127.602 22.877H129.064L129.078 23.7656ZM136.775 16.8613H138.054V27.3613H136.885L136.775 25.9258V16.8613ZM131.806 23.6016C131.806 22.8496 131.926 22.1911 132.168 21.626C132.414 21.0563 132.756 20.6143 133.193 20.2998C133.631 19.9854 134.143 19.8281 134.731 19.8281C135.351 19.8281 135.868 19.9717 136.283 20.2588C136.698 20.5413 137.021 20.9447 137.254 21.4688C137.491 21.9928 137.643 22.6172 137.712 23.3418V24.0049C137.643 24.7204 137.493 25.3402 137.261 25.8643C137.028 26.3838 136.702 26.7871 136.283 27.0742C135.868 27.3568 135.347 27.498 134.718 27.498C134.139 27.498 133.631 27.3363 133.193 27.0127C132.756 26.6846 132.414 26.238 132.168 25.6729C131.926 25.1077 131.806 24.4652 131.806 23.7451V23.6016ZM133.084 23.7451C133.084 24.2373 133.15 24.6862 133.282 25.0918C133.419 25.4974 133.631 25.8232 133.918 26.0693C134.205 26.3109 134.576 26.4316 135.032 26.4316C135.451 26.4316 135.796 26.3428 136.064 26.165C136.338 25.9873 136.557 25.7526 136.721 25.4609C136.885 25.1693 137.012 24.8525 137.103 24.5107V22.8496C137.049 22.599 136.969 22.3574 136.864 22.125C136.764 21.888 136.632 21.6784 136.468 21.4961C136.308 21.3092 136.11 21.1611 135.873 21.0518C135.641 20.9424 135.365 20.8877 135.046 20.8877C134.586 20.8877 134.21 21.0107 133.918 21.2568C133.631 21.5029 133.419 21.8333 133.282 22.248C133.15 22.6582 133.084 23.1094 133.084 23.6016V23.7451ZM143.16 23.5879C143.16 22.8724 143.297 22.2321 143.57 21.667C143.844 21.1019 144.231 20.6553 144.732 20.3271C145.234 19.9945 145.828 19.8281 146.517 19.8281C147.214 19.8281 147.815 19.9945 148.321 20.3271C148.827 20.6553 149.214 21.1019 149.483 21.667C149.757 22.2321 149.893 22.8724 149.893 23.5879V23.7451C149.893 24.4561 149.757 25.0964 149.483 25.666C149.214 26.2311 148.827 26.6777 148.321 27.0059C147.82 27.334 147.223 27.498 146.53 27.498C145.838 27.498 145.238 27.334 144.732 27.0059C144.231 26.6777 143.844 26.2311 143.57 25.666C143.297 25.0964 143.16 24.4561 143.16 23.7451V23.5879ZM144.438 23.7451C144.438 24.2327 144.516 24.6839 144.671 25.0986C144.826 25.5133 145.056 25.846 145.361 26.0967C145.671 26.3473 146.061 26.4727 146.53 26.4727C146.995 26.4727 147.38 26.3473 147.685 26.0967C147.995 25.846 148.228 25.5133 148.383 25.0986C148.538 24.6839 148.615 24.2327 148.615 23.7451V23.5879C148.615 23.1003 148.538 22.6491 148.383 22.2344C148.228 21.8197 147.995 21.487 147.685 21.2363C147.376 20.9811 146.986 20.8535 146.517 20.8535C146.056 20.8535 145.671 20.9811 145.361 21.2363C145.051 21.487 144.819 21.8197 144.664 22.2344C144.514 22.6491 144.438 23.1003 144.438 23.5879V23.7451ZM152.765 27.3613H151.486V19.9648H152.696L152.765 21.5439V27.3613ZM151.931 23.3555C151.94 22.681 152.07 22.0794 152.32 21.5508C152.571 21.0176 152.92 20.5983 153.366 20.293C153.817 19.9831 154.341 19.8281 154.938 19.8281C155.426 19.8281 155.845 19.9193 156.196 20.1016C156.552 20.2793 156.825 20.5641 157.017 20.9561C157.213 21.348 157.31 21.8675 157.31 22.5146V27.3613H156.032V22.501C156.032 22.1136 155.975 21.8014 155.861 21.5645C155.752 21.3275 155.588 21.1566 155.369 21.0518C155.15 20.9424 154.881 20.8877 154.562 20.8877C154.248 20.8877 153.963 20.9538 153.708 21.0859C153.453 21.2181 153.232 21.4004 153.045 21.6328C152.858 21.8652 152.714 22.1318 152.614 22.4326C152.514 22.7288 152.464 23.0433 152.464 23.376L151.931 23.3555ZM165.808 20.9287H161.802V19.9648H165.808V20.9287ZM164.427 18.167V25.5293C164.427 25.7845 164.465 25.9759 164.543 26.1035C164.62 26.2311 164.721 26.3154 164.844 26.3564C164.967 26.3975 165.099 26.418 165.24 26.418C165.345 26.418 165.454 26.4089 165.568 26.3906C165.687 26.3724 165.773 26.3564 165.828 26.3428L165.835 27.3613C165.735 27.3932 165.602 27.4229 165.438 27.4502C165.279 27.4821 165.085 27.498 164.857 27.498C164.547 27.498 164.263 27.4365 164.003 27.3135C163.743 27.1904 163.536 26.9854 163.381 26.6982C163.226 26.4066 163.148 26.0146 163.148 25.5225V18.167H164.427ZM168.556 27.3613H167.277V16.8613H168.556V27.3613ZM167.722 23.3555C167.731 22.681 167.861 22.0794 168.111 21.5508C168.362 21.0176 168.711 20.5983 169.157 20.293C169.608 19.9831 170.132 19.8281 170.729 19.8281C171.217 19.8281 171.636 19.9193 171.987 20.1016C172.343 20.2793 172.616 20.5641 172.808 20.9561C173.004 21.348 173.102 21.8675 173.102 22.5146V27.3613H171.823V22.501C171.823 22.1136 171.766 21.8014 171.652 21.5645C171.543 21.3275 171.379 21.1566 171.16 21.0518C170.941 20.9424 170.672 20.8877 170.353 20.8877C170.039 20.8877 169.754 20.9538 169.499 21.0859C169.244 21.2181 169.023 21.4004 168.836 21.6328C168.649 21.8652 168.505 22.1318 168.405 22.4326C168.305 22.7288 168.255 23.0433 168.255 23.376L167.722 23.3555ZM178.064 27.498C177.376 27.498 176.777 27.3454 176.267 27.04C175.761 26.7301 175.366 26.3063 175.084 25.7686C174.806 25.2308 174.667 24.6156 174.667 23.9229V23.6289C174.667 22.8268 174.82 22.1432 175.125 21.5781C175.435 21.0085 175.836 20.5755 176.328 20.2793C176.825 19.9785 177.349 19.8281 177.9 19.8281C178.611 19.8281 179.19 19.9876 179.637 20.3066C180.088 20.6211 180.418 21.0518 180.628 21.5986C180.842 22.141 180.949 22.7562 180.949 23.4443V24.0117H175.426V22.9863H179.671V22.8906C179.653 22.5625 179.587 22.2435 179.473 21.9336C179.359 21.6191 179.176 21.3617 178.926 21.1611C178.675 20.9561 178.333 20.8535 177.9 20.8535C177.518 20.8535 177.178 20.9629 176.882 21.1816C176.59 21.3958 176.36 21.7103 176.191 22.125C176.027 22.5352 175.945 23.0365 175.945 23.6289V23.9229C175.945 24.3923 176.032 24.8206 176.205 25.208C176.378 25.5908 176.629 25.8984 176.957 26.1309C177.285 26.3587 177.677 26.4727 178.133 26.4727C178.579 26.4727 178.958 26.3815 179.268 26.1992C179.577 26.0169 179.849 25.7731 180.081 25.4678L180.853 26.0693C180.616 26.4339 180.275 26.7643 179.828 27.0605C179.386 27.3522 178.798 27.498 178.064 27.498Z" fill="#E1E3E2"/>
<path d="M135.185 49.3703C136.218 48.4327 136.74 47.2221 136.74 45.7267C136.74 44.5161 136.384 43.4954 135.66 42.6765C134.948 41.8576 133.844 41.1455 132.337 40.5402C131.103 40.0536 130.248 39.6026 129.785 39.1872C129.251 38.7481 128.978 38.1665 128.978 37.4782C128.978 36.8491 129.215 36.3269 129.678 35.8878C130.236 35.413 131.019 35.1638 132.005 35.1638C133.263 35.1638 134.378 35.4368 135.375 35.9709L136.087 33.6921C135.031 33.1343 133.702 32.8613 132.111 32.8613C130.319 32.8613 128.883 33.3242 127.803 34.2381C126.723 35.1638 126.177 36.3388 126.177 37.7749C126.177 39.9705 127.708 41.644 130.806 42.7952C131.933 43.2106 132.74 43.6616 133.227 44.1482C133.702 44.6348 133.951 45.2282 133.951 45.9403C133.951 46.7355 133.654 47.3764 133.061 47.8512C132.479 48.3259 131.649 48.5633 130.592 48.5633C129.121 48.5633 127.768 48.1954 126.533 47.4714L125.88 49.8095C127.02 50.5334 128.527 50.9014 130.414 50.9014C132.456 50.9014 134.046 50.391 135.185 49.3703Z" fill="white"/>
<path fill-rule="evenodd" clip-rule="evenodd" d="M88.471 50.6403H91.4618L85.8006 33.1106H82.3113L76.6738 50.6403H79.5815L81.1363 45.4894H86.8331L88.471 50.6403ZM84.863 38.7599L86.3465 43.3293H81.6348L83.0946 38.7599C83.4744 37.312 83.7474 36.2082 83.9254 35.4605H83.9847C84.412 37.1933 84.7087 38.2852 84.863 38.7599Z" fill="white"/>
<path fill-rule="evenodd" clip-rule="evenodd" d="M104.196 49.2635C105.37 48.0173 105.952 46.3201 105.952 44.1719C105.952 42.2374 105.454 40.6945 104.433 39.5076C103.436 38.3326 102.202 37.7392 100.706 37.7392C98.8073 37.7392 97.383 38.4988 96.4454 40.0061H96.398L96.2437 38.0003H93.775C93.8462 39.4245 93.8819 40.8013 93.8819 42.1543V55.7674H96.6947V49.1329C97.4305 50.3316 98.6292 50.9251 100.303 50.9251C101.846 50.9251 103.151 50.3791 104.196 49.2635ZM102.261 41.2285C102.819 42.0237 103.092 43.0325 103.092 44.2669C103.092 45.608 102.795 46.6762 102.202 47.4951C101.608 48.3021 100.789 48.7175 99.733 48.7175C98.831 48.7175 98.0951 48.3971 97.5373 47.7681C96.9795 47.139 96.6947 46.3557 96.6947 45.4418V43.3293C96.6947 43.1038 96.7421 42.8189 96.8252 42.4747C96.9914 41.727 97.3712 41.1336 97.929 40.6707C98.4987 40.2197 99.1277 39.9824 99.8161 39.9824C100.837 39.9824 101.656 40.3978 102.261 41.2285Z" fill="white"/>
<path fill-rule="evenodd" clip-rule="evenodd" d="M120.479 44.1719C120.479 46.3201 119.897 48.0173 118.722 49.2635C117.678 50.3791 116.373 50.9251 114.83 50.9251C113.156 50.9251 111.957 50.3316 111.222 49.1329V55.7674H108.409V42.1543C108.409 40.8013 108.373 39.4245 108.302 38.0003H110.771L110.925 40.0061H110.972C111.91 38.4988 113.334 37.7392 115.233 37.7392C116.729 37.7392 117.963 38.3326 118.96 39.5076C119.981 40.6945 120.479 42.2374 120.479 44.1719ZM117.619 44.2669C117.619 43.0325 117.346 42.0237 116.788 41.2285C116.183 40.3978 115.364 39.9824 114.343 39.9824C113.655 39.9824 113.026 40.2197 112.456 40.6707C111.898 41.1336 111.53 41.727 111.352 42.4747C111.269 42.8189 111.222 43.1038 111.222 43.3293V45.4418C111.222 46.3557 111.506 47.139 112.064 47.7681C112.622 48.3971 113.358 48.7175 114.26 48.7175C115.316 48.7175 116.147 48.3021 116.729 47.4951C117.334 46.6762 117.619 45.608 117.619 44.2669Z" fill="white"/>
<path d="M146.044 40.113H142.946V46.2489C142.946 47.8037 143.492 48.587 144.584 48.587C145.083 48.587 145.498 48.5395 145.83 48.4565L145.913 50.5928C145.356 50.7946 144.632 50.9014 143.73 50.9014C142.614 50.9014 141.759 50.5572 141.13 49.8807C140.501 49.2042 140.193 48.0648 140.193 46.4744V40.1011H138.353V38.0004H140.193V35.686L142.946 34.8552V38.0004H146.044V40.113Z" fill="white"/>
<path fill-rule="evenodd" clip-rule="evenodd" d="M158.316 49.0023C159.42 47.7561 159.978 46.1658 159.978 44.2193C159.978 42.3323 159.444 40.7894 158.364 39.6025C157.236 38.3682 155.741 37.751 153.889 37.751C151.967 37.751 150.436 38.3801 149.296 39.6263C148.169 40.8724 147.599 42.4747 147.599 44.433C147.599 46.3082 148.145 47.8629 149.249 49.0854C150.353 50.3078 151.836 50.925 153.688 50.925C155.61 50.925 157.153 50.2841 158.316 49.0023ZM156.322 41.2997C156.821 42.1305 157.07 43.1156 157.07 44.2787C157.07 45.4418 156.809 46.4387 156.299 47.2933C155.682 48.3139 154.839 48.8243 153.771 48.8243C152.679 48.8243 151.824 48.3258 151.219 47.317C150.721 46.4981 150.471 45.5011 150.471 44.338C150.471 43.1393 150.709 42.1305 151.219 41.2997C151.801 40.2909 152.667 39.7924 153.794 39.7924C154.886 39.7924 155.729 40.2909 156.322 41.2997Z" fill="white"/>
<path d="M169.117 40.469C168.844 40.4215 168.548 40.3978 168.227 40.3978C167.242 40.3978 166.471 40.7657 165.937 41.5134C165.474 42.1661 165.236 43.0088 165.236 44.0058V50.6402H162.424V41.9763C162.424 40.5164 162.4 39.1872 162.34 38.0003H164.785L164.892 40.4215H164.975C165.272 39.5907 165.735 38.9142 166.376 38.4157C167.005 37.9647 167.681 37.7392 168.405 37.7392C168.666 37.7392 168.904 37.763 169.105 37.7867L169.117 40.469Z" fill="white"/>
<path fill-rule="evenodd" clip-rule="evenodd" d="M181.567 44.9909C181.638 44.6467 181.674 44.2194 181.674 43.7209C181.674 42.1424 181.294 40.825 180.546 39.7331C179.621 38.3801 178.232 37.7036 176.416 37.7036C174.565 37.7036 173.093 38.3801 172.001 39.7331C170.957 41.0031 170.434 42.5934 170.434 44.4924C170.434 46.4269 170.992 47.9817 172.108 49.1329C173.223 50.2842 174.766 50.8657 176.725 50.8657C178.351 50.8657 179.763 50.6046 180.962 50.0824L180.523 48.136C179.502 48.5276 178.362 48.7294 177.116 48.7294C175.989 48.7294 175.075 48.4327 174.363 47.8511C173.579 47.1984 173.176 46.237 173.14 44.9909H181.567ZM178.446 40.8369C178.825 41.4422 179.015 42.1662 178.992 42.997L173.152 42.9851C173.235 42.1424 173.52 41.4066 173.983 40.8013C174.553 40.0417 175.3 39.6619 176.214 39.6619C177.211 39.6619 177.959 40.0536 178.446 40.8369Z" fill="white"/>
</svg>
