<svg width="157" height="78" viewBox="0 0 157 78" fill="none" xmlns="http://www.w3.org/2000/svg">
<g opacity="0.3">
<path d="M24.0275 4.88498C23.3012 8.30044 21.3043 8.57292 19.6413 8.28425L19.2381 8.67544C18.5551 9.33371 17.7724 10.0918 16.9441 10.9686C17.8461 10.5181 19.0885 10.4803 20.0338 12.072C18.2125 13.4776 17.1241 12.5333 16.4433 11.5082C15.4942 12.5432 14.5984 13.6515 13.7613 14.8265C14.6546 14.0576 16.1896 13.5828 17.7008 15.3607C15.9013 17.1844 14.4855 16.2051 13.5315 15.1529C12.6664 16.4047 11.8295 17.813 11.0728 19.4047C12.0203 18.1179 13.8133 17.0468 16.2547 18.6601C14.5006 21.7492 12.339 21.0558 10.7562 20.0846C9.91166 21.9723 9.24245 23.9735 8.76151 26.0495C9.65046 24.072 11.8381 21.9056 15.5587 23.5486C13.8307 27.884 10.8798 27.4389 8.65094 26.5351C8.14692 28.8829 7.85602 31.2937 7.78367 33.7222C8.24115 31.5612 9.93015 28.8633 13.8979 29.4946C13.0935 34.17 10.1253 34.5018 7.77066 34.2024C7.71429 36.7383 7.85956 39.5036 8.26067 42.5252C8.46881 40.1322 9.74369 37.4398 13.4512 36.9757C13.9131 42.4119 11.0229 43.7851 8.50784 44.2167C8.71165 45.4874 8.95881 46.804 9.25368 48.1637C9.47917 49.1996 9.75019 50.1978 10.0646 51.1583C10.0537 48.6601 11.1682 45.6385 15.1446 44.4056C16.1723 49.7959 13.2995 51.8192 10.6521 52.7959C11.6357 55.2706 12.9061 57.5521 14.4226 59.5674C13.4317 56.7941 13.4382 52.4856 18.0282 49.5423C20.5324 55.2563 17.69 58.3885 14.9711 60.277C16.272 61.9199 17.6943 63.3606 19.1557 64.6097C20.1617 65.4703 21.1829 66.2392 22.1998 66.9217C20.346 64.5261 18.8825 59.8534 23.1104 55.1592C27.0651 60.2581 24.8081 64.348 22.4599 67.0944C25.7295 69.25 28.9037 70.5153 31.1239 71.044L31.0372 71.5215C30.0637 71.2895 28.9167 70.9199 27.6592 70.4019C26.9133 73.6367 24.047 78.0017 17.6683 76.3938C19.3812 69.7922 23.7218 69.5144 27.2256 70.2158C24.4666 69.0211 21.8363 67.4082 19.3942 65.4136C18.6353 68.4838 15.9641 72.4604 10.1621 70.955C11.7362 64.7068 15.6975 64.3858 18.9345 65.0305L18.8955 64.9982C15.4785 62.0764 12.2674 58.116 10.2445 52.9496C8.21947 54.6709 4.46639 55.8201 1.02336 51.2716C4.91086 47.8804 7.83571 49.6691 9.86944 51.9406C9.45337 50.7527 9.10842 49.5282 8.8374 48.277C7.96146 44.2437 7.50181 40.5908 7.37172 37.2833C5.48109 38.3355 2.11177 38.6403 -1.71661e-05 34.0998C4.01541 31.9982 6.1207 34.6097 7.36305 37.0783C7.26982 34.491 7.37823 32.1142 7.64491 29.9344C5.68056 30.1718 2.59961 29.2006 2.05323 24.3984C6.19875 24.045 7.28717 27.134 7.66443 29.7671C7.98531 27.2231 8.51868 24.9488 9.19514 22.9065C7.40858 22.6448 5.05179 21.1448 5.2014 16.9524C8.57288 17.3139 9.39679 19.7015 9.52687 21.9488C10.0352 20.5641 10.6296 19.2309 11.3048 17.9614C10.0602 17.1601 8.76802 15.3094 9.88679 12.2986C11.9574 13.4398 12.2848 15.0963 12.0571 16.626C12.675 15.5846 13.319 14.6404 13.9694 13.777C13.0263 12.9758 12.0528 11.1763 13.4708 8.82921C15.2443 10.3697 14.9364 12.0369 14.3055 13.3373C15.9815 11.1817 17.6596 9.56033 18.9562 8.30853L19.3747 7.90386C19.7779 6.2285 21.1157 4.16735 24.0275 4.88498Z" fill="white"/>
<path d="M8.06848 44.6781C6.61581 42.3687 4.27854 39.9164 0.464746 42.5387C3.0145 46.7743 6.33829 45.9784 8.06848 44.6781Z" fill="white"/>
<path d="M14.6293 60.625C12.3658 57.7653 8.89671 54.8543 4.10942 59.0333C8.101 64.3048 12.4698 62.6672 14.6293 60.625Z" fill="white"/>
<path d="M16.9016 10.34C17.6713 9.33641 18.3889 7.85799 16.8257 6.13947C15.399 7.91734 16.147 9.57112 16.9016 10.34Z" fill="white"/>
<path d="M132.148 4.88498C132.874 8.30044 134.871 8.57292 136.534 8.28425L136.937 8.67544C137.62 9.33371 138.403 10.0918 139.231 10.9686C138.329 10.5181 137.087 10.4803 136.141 12.072C137.963 13.4776 139.051 12.5333 139.732 11.5082C140.681 12.5432 141.577 13.6515 142.414 14.8265C141.521 14.0576 139.986 13.5828 138.474 15.3607C140.274 17.1844 141.69 16.2051 142.644 15.1529C143.509 16.4047 144.346 17.813 145.102 19.4047C144.155 18.1179 142.362 17.0468 139.921 18.6601C141.675 21.7492 143.836 21.0558 145.419 20.0846C146.264 21.9723 146.933 23.9735 147.414 26.0495C146.525 24.072 144.337 21.9056 140.616 23.5486C142.345 27.884 145.295 27.4389 147.524 26.5351C148.028 28.8829 148.319 31.2937 148.391 33.7222C147.934 31.5612 146.245 28.8633 142.277 29.4946C143.082 34.17 146.05 34.5018 148.405 34.2024C148.461 36.7383 148.316 39.5036 147.915 42.5252C147.706 40.1322 146.431 37.4398 142.724 36.9757C142.262 42.4119 145.152 43.7851 147.667 44.2167C147.464 45.4874 147.216 46.804 146.921 48.1637C146.696 49.1996 146.425 50.1978 146.111 51.1583C146.121 48.6601 145.007 45.6385 141.031 44.4056C140.003 49.7959 142.876 51.8192 145.523 52.7959C144.539 55.2706 143.269 57.5521 141.753 59.5674C142.743 56.7941 142.737 52.4856 138.147 49.5423C135.643 55.2563 138.485 58.3885 141.204 60.277C139.903 61.9199 138.481 63.3606 137.02 64.6097C136.013 65.4703 134.992 66.2392 133.975 66.9217C135.829 64.5261 137.293 59.8534 133.065 55.1592C129.11 60.2581 131.367 64.348 133.715 67.0944C130.446 69.25 127.271 70.5153 125.051 71.044L125.138 71.5215C126.111 71.2895 127.258 70.9199 128.516 70.4019C129.262 73.6367 132.128 78.0017 138.507 76.3938C136.794 69.7922 132.453 69.5144 128.95 70.2158C131.709 69.0211 134.339 67.4082 136.781 65.4136C137.54 68.4838 140.211 72.4604 146.013 70.955C144.439 64.7068 140.478 64.3858 137.241 65.0305L137.28 64.9982C140.697 62.0764 143.908 58.116 145.931 52.9496C147.956 54.6709 151.709 55.8201 155.152 51.2716C151.264 47.8804 148.339 49.6691 146.306 51.9406C146.722 50.7527 147.067 49.5282 147.338 48.277C148.214 44.2437 148.673 40.5908 148.803 37.2833C150.694 38.3355 154.063 38.6403 156.175 34.0998C152.16 31.9982 150.054 34.6097 148.812 37.0783C148.905 34.491 148.797 32.1142 148.53 29.9344C150.495 30.1718 153.576 29.2006 154.122 24.3984C149.976 24.045 148.888 27.134 148.511 29.7671C148.19 27.2231 147.656 24.9488 146.98 22.9065C148.767 22.6448 151.123 21.1448 150.974 16.9524C147.602 17.3139 146.778 19.7015 146.648 21.9488C146.14 20.5641 145.546 19.2309 144.87 17.9614C146.115 17.1601 147.407 15.3094 146.288 12.2986C144.218 13.4398 143.89 15.0963 144.118 16.626C143.5 15.5846 142.856 14.6404 142.206 13.777C143.149 12.9758 144.122 11.1763 142.704 8.82921C140.931 10.3697 141.239 12.0369 141.87 13.3373C140.194 11.1817 138.516 9.56033 137.219 8.30853L136.801 7.90386C136.397 6.2285 135.059 4.16735 132.148 4.88498Z" fill="white"/>
<path d="M148.107 44.6781C149.559 42.3687 151.897 39.9164 155.71 42.5387C153.161 46.7743 149.837 45.9784 148.107 44.6781Z" fill="white"/>
<path d="M141.546 60.625C143.809 57.7653 147.278 54.8543 152.066 59.0333C148.074 64.3048 143.705 62.6672 141.546 60.625Z" fill="white"/>
<path d="M139.274 10.34C138.504 9.33641 137.786 7.85799 139.35 6.13947C140.776 7.91734 140.028 9.57112 139.274 10.34Z" fill="white"/>
</g>
<path d="M72.4937 27.8047H56.0562L55.8374 24.8203L65.228 9.92969H68.978L64.978 16.8359L60.478 24.0078H72.4937V27.8047ZM69.978 32.6797H65.2749V9.92969H69.978V32.6797ZM75.3062 30.3516C75.3062 29.6432 75.5457 29.0495 76.0249 28.5703C76.5145 28.0911 77.1551 27.8516 77.9468 27.8516C78.7593 27.8516 79.4051 28.0911 79.8843 28.5703C80.3634 29.0495 80.603 29.6432 80.603 30.3516C80.603 31.0599 80.3634 31.6536 79.8843 32.1328C79.4051 32.612 78.7593 32.8516 77.9468 32.8516C77.1551 32.8516 76.5145 32.612 76.0249 32.1328C75.5457 31.6536 75.3062 31.0599 75.3062 30.3516ZM99.8999 12.5547L91.1812 32.6797H86.1968L94.9155 13.7266H83.728V9.92969H99.8999V12.5547Z" fill="white"/>
<path fill-rule="evenodd" clip-rule="evenodd" d="M54.344 44.6421L57.5153 46.5547L56.6763 42.9477L59.4756 40.522L55.7854 40.2054L54.344 36.8047L52.9025 40.2054L49.2124 40.522L52.0117 42.9477L51.1727 46.5547L54.344 44.6421Z" fill="#FFE35C"/>
<path fill-rule="evenodd" clip-rule="evenodd" d="M66.344 44.6421L69.5153 46.5547L68.6763 42.9477L71.4756 40.522L67.7854 40.2054L66.344 36.8047L64.9025 40.2054L61.2124 40.522L64.0117 42.9477L63.1727 46.5547L66.344 44.6421Z" fill="#FFE35C"/>
<path fill-rule="evenodd" clip-rule="evenodd" d="M78.344 44.6421L81.5153 46.5547L80.6763 42.9477L83.4756 40.522L79.7854 40.2054L78.344 36.8047L76.9025 40.2054L73.2124 40.522L76.0117 42.9477L75.1727 46.5547L78.344 44.6421Z" fill="#FFE35C"/>
<path fill-rule="evenodd" clip-rule="evenodd" d="M90.344 44.6421L93.5153 46.5547L92.6763 42.9477L95.4756 40.522L91.7854 40.2054L90.344 36.8047L88.9025 40.2054L85.2124 40.522L88.0117 42.9477L87.1727 46.5547L90.344 44.6421Z" fill="#FFE35C"/>
<path fill-rule="evenodd" clip-rule="evenodd" d="M102.344 44.6421L105.515 46.5547L104.676 42.9477L107.476 40.522L103.785 40.2054L102.344 36.8047L100.903 40.2054L97.2124 40.522L100.012 42.9477L99.1727 46.5547L102.344 44.6421Z" fill="#C1C4C7"/>
<rect x="43.0874" y="55.6797" width="70" height="22" rx="11" fill="white" fill-opacity="0.1"/>
<path d="M54.8843 69.6797H53.2485L55.8901 62.5703H56.9253L56.7788 63.918L54.8843 69.6797ZM56.4321 63.918L56.271 62.5703H57.311L59.9673 69.6797H58.3315L56.4321 63.918ZM58.2827 68.2637H54.5132V67.0234H58.2827V68.2637ZM61.9937 71.7109H60.519V64.3965H61.8862L61.9937 65.4121V71.7109ZM65.314 67.082C65.314 67.5931 65.2342 68.0521 65.0747 68.459C64.9185 68.8659 64.6873 69.1882 64.3813 69.4258C64.0786 69.6602 63.7043 69.7773 63.2583 69.7773C62.8254 69.7773 62.4689 69.6602 62.189 69.4258C61.9123 69.1882 61.6974 68.8691 61.5444 68.4688C61.3914 68.0684 61.2808 67.6257 61.2124 67.1406V66.9893C61.2775 66.4717 61.3866 66.0111 61.5396 65.6074C61.6958 65.2005 61.9123 64.8815 62.189 64.6504C62.4689 64.416 62.8237 64.2988 63.2534 64.2988C63.6994 64.2988 64.0754 64.4111 64.3813 64.6357C64.6873 64.8571 64.9185 65.1696 65.0747 65.5732C65.2342 65.9736 65.314 66.4424 65.314 66.9795V67.082ZM63.8394 66.9795C63.8394 66.693 63.8068 66.4391 63.7417 66.2178C63.6799 65.9932 63.5773 65.8174 63.4341 65.6904C63.2909 65.5602 63.1004 65.4951 62.8628 65.4951C62.6805 65.4951 62.5243 65.5244 62.394 65.583C62.2671 65.6383 62.1613 65.7214 62.0767 65.832C61.9953 65.9427 61.9334 66.0794 61.8911 66.2422C61.8521 66.4017 61.8293 66.5872 61.8228 66.7988V67.3359C61.8358 67.5768 61.8765 67.7917 61.9448 67.9805C62.0164 68.1693 62.1271 68.319 62.2769 68.4297C62.4266 68.5371 62.6252 68.5908 62.8726 68.5908C63.1134 68.5908 63.3039 68.5225 63.4438 68.3857C63.5838 68.249 63.6847 68.0667 63.7466 67.8389C63.8084 67.6077 63.8394 67.3555 63.8394 67.082V66.9795ZM67.6284 71.7109H66.1538V64.3965H67.521L67.6284 65.4121V71.7109ZM70.9487 67.082C70.9487 67.5931 70.869 68.0521 70.7095 68.459C70.5532 68.8659 70.3221 69.1882 70.0161 69.4258C69.7134 69.6602 69.339 69.7773 68.8931 69.7773C68.4601 69.7773 68.1037 69.6602 67.8237 69.4258C67.547 69.1882 67.3322 68.8691 67.1792 68.4688C67.0262 68.0684 66.9155 67.6257 66.8472 67.1406V66.9893C66.9123 66.4717 67.0213 66.0111 67.1743 65.6074C67.3306 65.2005 67.547 64.8815 67.8237 64.6504C68.1037 64.416 68.4585 64.2988 68.8882 64.2988C69.3341 64.2988 69.7101 64.4111 70.0161 64.6357C70.3221 64.8571 70.5532 65.1696 70.7095 65.5732C70.869 65.9736 70.9487 66.4424 70.9487 66.9795V67.082ZM69.4741 66.9795C69.4741 66.693 69.4416 66.4391 69.3765 66.2178C69.3146 65.9932 69.2121 65.8174 69.0688 65.6904C68.9256 65.5602 68.7352 65.4951 68.4976 65.4951C68.3153 65.4951 68.159 65.5244 68.0288 65.583C67.9019 65.6383 67.7961 65.7214 67.7114 65.832C67.63 65.9427 67.5682 66.0794 67.5259 66.2422C67.4868 66.4017 67.464 66.5872 67.4575 66.7988V67.3359C67.4705 67.5768 67.5112 67.7917 67.5796 67.9805C67.6512 68.1693 67.7619 68.319 67.9116 68.4297C68.0614 68.5371 68.2599 68.5908 68.5073 68.5908C68.7482 68.5908 68.9386 68.5225 69.0786 68.3857C69.2186 68.249 69.3195 68.0667 69.3813 67.8389C69.4432 67.6077 69.4741 67.3555 69.4741 67.082V66.9795ZM77.0522 62.5703C77.6024 62.5703 78.0744 62.6533 78.4683 62.8193C78.8654 62.9821 79.1698 63.223 79.3813 63.542C79.5929 63.8577 79.6987 64.25 79.6987 64.7188C79.6987 65.1094 79.6336 65.4414 79.5034 65.7148C79.3765 65.9883 79.1974 66.2145 78.9663 66.3936C78.7352 66.5726 78.4634 66.7174 78.1509 66.8281L77.6626 67.1064H75.3823L75.3726 65.8662H77.0474C77.2948 65.8662 77.5015 65.8255 77.6675 65.7441C77.8335 65.6595 77.9572 65.5407 78.0386 65.3877C78.12 65.2347 78.1606 65.054 78.1606 64.8457C78.1606 64.5267 78.0695 64.2744 77.8872 64.0889C77.7082 63.9033 77.4299 63.8105 77.0522 63.8105H75.9097V69.6797H74.3765V62.5703H77.0522ZM76.7104 66.5205L78.3315 66.5107L79.9575 69.6064V69.6797H78.312L76.7104 66.5205ZM83.522 66.1592C83.522 65.9215 83.4634 65.7327 83.3462 65.5928C83.229 65.4528 83.0418 65.3828 82.7847 65.3828C82.6382 65.3828 82.5112 65.4072 82.4038 65.4561C82.2964 65.5049 82.215 65.5749 82.1597 65.666C82.1043 65.7539 82.0767 65.863 82.0767 65.9932H80.6021C80.6021 65.6807 80.6948 65.3975 80.8804 65.1436C81.0659 64.8864 81.328 64.6813 81.6665 64.5283C82.005 64.3753 82.4038 64.2988 82.8628 64.2988C83.2729 64.2988 83.6392 64.3688 83.9614 64.5088C84.2837 64.6455 84.5376 64.8522 84.7231 65.1289C84.9087 65.4056 85.0015 65.7523 85.0015 66.1689V68.376C85.0015 68.6885 85.0194 68.9359 85.0552 69.1182C85.0942 69.3005 85.1479 69.46 85.2163 69.5967V69.6797H83.7319C83.6603 69.5299 83.6066 69.3428 83.5708 69.1182C83.5382 68.8936 83.522 68.6657 83.522 68.4346V66.1592ZM83.7222 67.2969H82.9702C82.6121 67.2969 82.3534 67.375 82.1938 67.5312C82.0343 67.6842 81.9546 67.8698 81.9546 68.0879C81.9546 68.2539 82.0132 68.3906 82.1304 68.498C82.2476 68.6055 82.4054 68.6592 82.604 68.6592C82.8091 68.6592 82.9849 68.6201 83.1313 68.542C83.2811 68.4606 83.395 68.3646 83.4731 68.2539C83.5545 68.14 83.5936 68.0358 83.5903 67.9414L83.9712 68.5762C83.9191 68.7064 83.8491 68.8415 83.7612 68.9814C83.6766 69.1214 83.5675 69.2516 83.4341 69.3721C83.3006 69.4925 83.1379 69.5902 82.9458 69.665C82.757 69.7399 82.534 69.7773 82.2769 69.7773C81.9448 69.7773 81.6421 69.7106 81.3687 69.5771C81.0952 69.4404 80.8787 69.2533 80.7192 69.0156C80.5597 68.7747 80.48 68.4997 80.48 68.1904C80.48 67.637 80.6851 67.209 81.0952 66.9062C81.5054 66.6003 82.1157 66.4473 82.9263 66.4473H83.7124L83.7222 67.2969ZM88.6978 65.4707H85.5776V64.3965H88.6978V65.4707ZM87.8042 63.0928V68.0293C87.8042 68.1725 87.8221 68.2832 87.8579 68.3613C87.897 68.4395 87.9572 68.4932 88.0386 68.5225C88.12 68.5518 88.2209 68.5664 88.3413 68.5664C88.4292 68.5664 88.5073 68.5632 88.5757 68.5566C88.644 68.5501 88.7026 68.542 88.7515 68.5322L88.7466 69.6455C88.6261 69.6878 88.4943 69.7204 88.3511 69.7432C88.2111 69.766 88.0532 69.7773 87.8774 69.7773C87.5617 69.7773 87.2866 69.7253 87.0522 69.6211C86.8211 69.5137 86.6421 69.3444 86.5151 69.1133C86.3914 68.8789 86.3296 68.5729 86.3296 68.1953V63.0928H87.8042ZM91.0073 69.6797H89.5278V64.3965H91.0073V69.6797ZM89.4399 63.0342C89.4399 62.8128 89.5148 62.6322 89.6646 62.4922C89.8143 62.349 90.0145 62.2773 90.2651 62.2773C90.5158 62.2773 90.7144 62.349 90.8608 62.4922C91.0106 62.6322 91.0854 62.8128 91.0854 63.0342C91.0854 63.2523 91.0106 63.4329 90.8608 63.5762C90.7144 63.7194 90.5158 63.791 90.2651 63.791C90.0145 63.791 89.8143 63.7194 89.6646 63.5762C89.5148 63.4329 89.4399 63.2523 89.4399 63.0342ZM93.5806 69.6797H92.106V64.3965H93.4927L93.5806 65.5244V69.6797ZM92.9751 66.8818C92.9751 66.348 93.0614 65.889 93.2339 65.5049C93.4064 65.1175 93.6489 64.8197 93.9614 64.6113C94.2739 64.403 94.6369 64.2988 95.0503 64.2988C95.3823 64.2988 95.672 64.3639 95.9194 64.4941C96.1701 64.6243 96.3654 64.8376 96.5054 65.1338C96.6486 65.4268 96.7202 65.8255 96.7202 66.3301V69.6797H95.2407V66.3203C95.2407 66.1022 95.2082 65.9346 95.1431 65.8174C95.0812 65.6969 94.9901 65.6139 94.8696 65.5684C94.7492 65.5195 94.6011 65.4951 94.4253 65.4951C94.2463 65.4951 94.09 65.5293 93.9565 65.5977C93.8263 65.6628 93.7173 65.7572 93.6294 65.8809C93.5448 66.0046 93.4813 66.151 93.439 66.3203C93.3966 66.4863 93.3755 66.667 93.3755 66.8623L92.9751 66.8818ZM102.428 64.3965V69.4893C102.428 69.9743 102.319 70.3861 102.101 70.7246C101.886 71.0632 101.585 71.3203 101.198 71.4961C100.81 71.6719 100.361 71.7598 99.8501 71.7598C99.632 71.7598 99.3993 71.7305 99.1519 71.6719C98.9045 71.6133 98.6668 71.5238 98.439 71.4033C98.2144 71.2829 98.0272 71.1299 97.8774 70.9443L98.522 70.041C98.6782 70.2168 98.8638 70.3551 99.0786 70.4561C99.2935 70.5602 99.5295 70.6123 99.7866 70.6123C100.154 70.6123 100.439 70.5146 100.641 70.3193C100.846 70.1273 100.949 69.8506 100.949 69.4893V65.6318L101.09 64.3965H102.428ZM97.5454 66.999C97.5454 66.4619 97.6317 65.9915 97.8042 65.5879C97.98 65.181 98.229 64.8652 98.5513 64.6406C98.8735 64.4128 99.256 64.2988 99.6987 64.2988C100.054 64.2988 100.35 64.3672 100.587 64.5039C100.828 64.6374 101.024 64.8262 101.173 65.0703C101.323 65.3145 101.44 65.6025 101.525 65.9346C101.61 66.2633 101.678 66.6214 101.73 67.0088V67.1309C101.662 67.6224 101.551 68.0684 101.398 68.4688C101.245 68.8691 101.03 69.1882 100.753 69.4258C100.477 69.6602 100.122 69.7773 99.689 69.7773C99.2495 69.7773 98.8687 69.6618 98.5464 69.4307C98.2274 69.1963 97.98 68.8773 97.8042 68.4736C97.6317 68.07 97.5454 67.6126 97.5454 67.1016V66.999ZM99.0249 67.1016C99.0249 67.375 99.0623 67.624 99.1372 67.8486C99.2121 68.0732 99.326 68.2523 99.479 68.3857C99.632 68.516 99.8273 68.5811 100.065 68.5811C100.316 68.5811 100.517 68.529 100.67 68.4248C100.827 68.3174 100.944 68.1693 101.022 67.9805C101.103 67.7917 101.149 67.5736 101.159 67.3262V66.8184C101.152 66.6068 101.126 66.4196 101.081 66.2568C101.035 66.0908 100.968 65.9525 100.88 65.8418C100.792 65.7279 100.682 65.6416 100.548 65.583C100.418 65.5244 100.26 65.4951 100.075 65.4951C99.8403 65.4951 99.645 65.5618 99.4888 65.6953C99.3325 65.8255 99.2153 66.0046 99.1372 66.2324C99.0623 66.457 99.0249 66.7126 99.0249 66.999V67.1016Z" fill="#F9FBFC"/>
</svg>
